STARTFONT 2.1
COMMENT
COMMENT Converted from OpenType font "Patriot-Bold.otf" by "otf2bdf 3.0".
COMMENT
FONT -FreeType-Patriot Bold-Medium-R-Normal--28-200-100-100-P-140-ISO10646-1
SIZE 20 100 100
FONTBOUNDINGBOX 49 37 -12 -8
STARTPROPERTIES 19
FOUNDRY "FreeType"
FAMILY_NAME "Patriot Bold"
WEIGHT_NAME "Medium"
SLANT "R"
SETWIDTH_NAME "Normal"
ADD_STYLE_NAME ""
PIXEL_SIZE 28
POINT_SIZE 200
RESOLUTION_X 100
RESOLUTION_Y 100
SPACING "P"
AVERAGE_WIDTH 140
CHARSET_REGISTRY "ISO10646"
CHARSET_ENCODING "1"
FONT_ASCENT 28
FONT_DESCENT 5
COPYRIGHT "Copyright © 2020 by Behalf Studio. All rights reserved."
_OTF_FONTFILE "Patriot-Bold.otf"
_OTF_PSNAME "Patriot-Bold"
ENDPROPERTIES
CHARS 426
STARTCHAR 0020
ENCODING 32
SWIDTH 360 0
DWIDTH 10 0
BBX 0 0 0 0
BITMAP
ENDCHAR
STARTCHAR 0021
ENCODING 33
SWIDTH 252 0
DWIDTH 7 0
BBX 4 19 2 0
BITMAP
F0
F0
F0
F0
F0
F0
F0
F0
F0
F0
F0
F0
00
00
00
F0
F0
F0
F0
ENDCHAR
STARTCHAR 0022
ENCODING 34
SWIDTH 324 0
DWIDTH 9 0
BBX 6 6 2 13
BITMAP
CC
CC
CC
CC
CC
CC
ENDCHAR
STARTCHAR 0023
ENCODING 35
SWIDTH 648 0
DWIDTH 18 0
BBX 15 19 2 0
BITMAP
0E38
0E38
1E38
1E78
1C78
FFFE
FFFE
FFFE
1C70
3C70
3CF0
FFFC
FFFC
FFFC
38E0
38E0
78E0
79E0
71E0
ENDCHAR
STARTCHAR 0024
ENCODING 36
SWIDTH 540 0
DWIDTH 15 0
BBX 12 25 2 -3
BITMAP
0E00
0E00
1F00
3FC0
7FE0
FFF0
F9F0
F0C0
F800
7C00
7F00
3F80
1FC0
07E0
03F0
00F0
30F0
F0F0
FFF0
FFF0
7FE0
1FC0
0E00
0E00
0E00
ENDCHAR
STARTCHAR 0025
ENCODING 37
SWIDTH 936 0
DWIDTH 26 0
BBX 23 20 2 0
BITMAP
3E0070
7F00E0
FF81C0
E3C3C0
E3C380
E3C700
F3CF00
FF8E00
7F1C00
1C3800
003800
0071F8
00E3FC
01E7FE
01C70E
03870E
07870E
0707FE
0E03FC
1C01F8
ENDCHAR
STARTCHAR 0026
ENCODING 38
SWIDTH 684 0
DWIDTH 19 0
BBX 16 20 2 0
BITMAP
0F80
3FE0
7FF0
7FF0
F8E0
F040
F000
F800
7FFF
7FFF
7FFF
FFFF
F83C
F03C
F07C
F07C
FDF8
FFF8
7FF0
3FC0
ENDCHAR
STARTCHAR 0027
ENCODING 39
SWIDTH 180 0
DWIDTH 5 0
BBX 2 6 2 13
BITMAP
C0
C0
C0
C0
C0
C0
ENDCHAR
STARTCHAR 0028
ENCODING 40
SWIDTH 360 0
DWIDTH 10 0
BBX 6 26 2 -4
BITMAP
0C
1C
3C
38
78
70
70
E0
E0
E0
E0
C0
C0
C0
E0
E0
E0
E0
E0
70
70
78
38
1C
1C
08
ENDCHAR
STARTCHAR 0029
ENCODING 41
SWIDTH 360 0
DWIDTH 10 0
BBX 7 26 2 -4
BITMAP
60
E0
F0
70
38
38
1C
1C
1C
1C
0C
0E
0E
0E
0E
0C
1C
1C
1C
38
38
78
70
F0
E0
40
ENDCHAR
STARTCHAR 002A
ENCODING 42
SWIDTH 432 0
DWIDTH 12 0
BBX 9 9 2 10
BITMAP
1800
1C00
1C00
FB80
FF80
7F00
3600
7700
7700
ENDCHAR
STARTCHAR 002B
ENCODING 43
SWIDTH 576 0
DWIDTH 16 0
BBX 13 12 2 3
BITMAP
0F00
0F00
0F00
0F00
FFF8
FFF8
FFF8
0F00
0F00
0F00
0F00
0F00
ENDCHAR
STARTCHAR 002C
ENCODING 44
SWIDTH 288 0
DWIDTH 8 0
BBX 4 5 2 -3
BITMAP
70
70
E0
E0
C0
ENDCHAR
STARTCHAR 002D
ENCODING 45
SWIDTH 432 0
DWIDTH 12 0
BBX 9 3 2 5
BITMAP
FF80
FF80
FF80
ENDCHAR
STARTCHAR 002E
ENCODING 46
SWIDTH 252 0
DWIDTH 7 0
BBX 4 4 2 0
BITMAP
F0
F0
F0
F0
ENDCHAR
STARTCHAR 002F
ENCODING 47
SWIDTH 432 0
DWIDTH 12 0
BBX 9 20 2 0
BITMAP
0780
0700
0700
0F00
0E00
0E00
0E00
1E00
1C00
1C00
3C00
3800
3800
3800
7800
7000
7000
F000
E000
E000
ENDCHAR
STARTCHAR 0030
ENCODING 48
SWIDTH 720 0
DWIDTH 20 0
BBX 19 20 1 0
BITMAP
01F000
0FFC00
1FFF00
3FFF00
7E0F80
7C07C0
7803C0
F003C0
F001E0
F001E0
F001E0
F001E0
F003C0
F803C0
7807C0
7C0780
3F3F80
1FFF00
0FFE00
07F800
ENDCHAR
STARTCHAR 0031
ENCODING 49
SWIDTH 324 0
DWIDTH 9 0
BBX 7 19 1 0
BITMAP
1E
FE
FE
FE
FE
1E
1E
1E
1E
1E
1E
1E
1E
1E
1E
1E
1E
1E
1E
ENDCHAR
STARTCHAR 0032
ENCODING 50
SWIDTH 576 0
DWIDTH 16 0
BBX 14 20 1 0
BITMAP
0780
1FE0
3FF0
7FF8
7878
F87C
F03C
0078
0078
00F8
00F0
01F0
03E0
07C0
0F80
1F00
3FFC
7FFC
FFFC
FFFC
ENDCHAR
STARTCHAR 0033
ENCODING 51
SWIDTH 540 0
DWIDTH 15 0
BBX 13 19 1 0
BITMAP
7FF0
7FF0
7FE0
03C0
0780
0F00
1FC0
3FE0
3FF0
1DF0
00F8
0078
0078
0078
30F8
79F0
FFF0
7FE0
1FC0
ENDCHAR
STARTCHAR 0034
ENCODING 52
SWIDTH 540 0
DWIDTH 15 0
BBX 15 19 0 0
BITMAP
01F8
07F8
0FF8
1FF8
3E78
3C78
7878
7878
7878
7878
7FFE
FFFE
FFFE
FFFE
0078
0078
0078
0078
0078
ENDCHAR
STARTCHAR 0035
ENCODING 53
SWIDTH 540 0
DWIDTH 15 0
BBX 14 19 1 0
BITMAP
3FF8
7FF8
7FF8
7800
7800
7800
7FC0
7FF0
7FF0
7DF8
1078
007C
003C
0078
1078
79F8
FFF0
7FE0
1FC0
ENDCHAR
STARTCHAR 0036
ENCODING 54
SWIDTH 612 0
DWIDTH 17 0
BBX 16 19 1 0
BITMAP
01F0
03E0
07C0
0F80
0F00
1FF0
3FF8
3FFC
7E7E
781E
F81F
F00F
F00F
F81E
781E
7E7E
3FFC
1FF8
0FF0
ENDCHAR
STARTCHAR 0037
ENCODING 55
SWIDTH 504 0
DWIDTH 14 0
BBX 13 19 1 0
BITMAP
FFF8
FFF8
FFF8
00F0
00F0
01E0
01E0
7FF0
7FF0
7FF0
7FF0
0780
0780
0F00
0F00
1E00
1E00
1E00
3C00
ENDCHAR
STARTCHAR 0038
ENCODING 56
SWIDTH 540 0
DWIDTH 15 0
BBX 14 20 1 0
BITMAP
0780
1FE0
3FF0
3FF0
7878
7878
7CF0
3FF0
3FF0
7FF0
7FF8
F87C
F03C
F03C
F03C
F07C
7CF8
7FF8
3FF0
1FE0
ENDCHAR
STARTCHAR 0039
ENCODING 57
SWIDTH 612 0
DWIDTH 17 0
BBX 15 20 1 0
BITMAP
07C0
1FF0
3FF8
7FFC
7C3E
F81E
F01E
F01E
F01E
F01E
783E
7FFC
3FFC
1FF8
06F0
01F0
03E0
07C0
0780
0F80
ENDCHAR
STARTCHAR 003A
ENCODING 58
SWIDTH 252 0
DWIDTH 7 0
BBX 4 14 2 0
BITMAP
F0
F0
F0
F0
60
00
00
00
00
00
F0
F0
F0
F0
ENDCHAR
STARTCHAR 003B
ENCODING 59
SWIDTH 288 0
DWIDTH 8 0
BBX 5 17 2 -3
BITMAP
70
F8
F8
F8
30
00
00
00
00
00
00
00
70
70
E0
E0
C0
ENDCHAR
STARTCHAR 003C
ENCODING 60
SWIDTH 576 0
DWIDTH 16 0
BBX 13 13 2 2
BITMAP
0018
00F8
03F8
1FE0
FF00
F800
F000
FE00
7FC0
0FF0
01F8
0038
0008
ENDCHAR
STARTCHAR 003D
ENCODING 61
SWIDTH 576 0
DWIDTH 16 0
BBX 13 9 2 5
BITMAP
FFF8
FFF8
FFF8
0000
0000
0000
FFF8
FFF8
FFF8
ENDCHAR
STARTCHAR 003E
ENCODING 62
SWIDTH 576 0
DWIDTH 16 0
BBX 13 12 2 2
BITMAP
8000
F000
FE00
7F80
0FF0
01F8
0078
03F8
1FE0
FF00
F800
E000
ENDCHAR
STARTCHAR 003F
ENCODING 63
SWIDTH 432 0
DWIDTH 12 0
BBX 9 20 2 0
BITMAP
1E00
7F00
FF80
FF80
6780
0780
0780
0F00
1E00
1E00
3C00
3C00
3C00
0000
0000
0000
3C00
3E00
3E00
3C00
ENDCHAR
STARTCHAR 0040
ENCODING 64
SWIDTH 828 0
DWIDTH 23 0
BBX 19 21 2 -1
BITMAP
01FC00
0FFF00
1F0F80
3C01C0
7000E0
6040E0
E1FC60
E3FC60
C79C60
C79C60
C71C60
C7BCE0
C7FFC0
E3EF80
E08300
700000
380180
1E03C0
0FFF00
07FE00
002000
ENDCHAR
STARTCHAR 0041
ENCODING 65
SWIDTH 576 0
DWIDTH 16 0
BBX 15 20 1 0
BITMAP
0780
1FE0
3FF0
7FF0
78F8
F878
F878
F878
F878
F878
F878
F878
F878
F878
F878
F878
FFFE
FFFE
FFFE
FFFE
ENDCHAR
STARTCHAR 0042
ENCODING 66
SWIDTH 648 0
DWIDTH 18 0
BBX 16 19 1 0
BITMAP
3FF8
3FFC
3FFE
3C3E
3C1F
3C1F
3C1E
FFFE
FFFE
FFFE
FFFF
3C1F
3C0F
3C0F
3C1F
3FFF
3FFE
3FFC
3FF8
ENDCHAR
STARTCHAR 0043
ENCODING 67
SWIDTH 684 0
DWIDTH 19 0
BBX 18 20 1 0
BITMAP
00F800
07FF00
0FFF80
1FFF80
3F0700
7C0200
780000
F80000
F00000
F00000
F00000
F00000
F80000
780000
7C0000
7E0300
3FDF80
1FFFC0
0FFF00
03FE00
ENDCHAR
STARTCHAR 0044
ENCODING 68
SWIDTH 684 0
DWIDTH 19 0
BBX 16 19 2 0
BITMAP
FFE0
FFF8
FFFC
F3FC
F03E
F01F
F01F
F00F
F00F
F00F
F00F
F00F
F01F
F03E
F07E
FFFC
FFF8
FFF0
FFC0
ENDCHAR
STARTCHAR 0045
ENCODING 69
SWIDTH 504 0
DWIDTH 14 0
BBX 13 19 1 0
BITMAP
7FC0
7FC0
7FC0
7C00
7C00
7C00
7C00
FFE0
FFE0
FFE0
FFE0
7C00
7C00
7C00
7C00
7FF8
7FF8
7FF8
7FF8
ENDCHAR
STARTCHAR 0046
ENCODING 70
SWIDTH 468 0
DWIDTH 13 0
BBX 12 19 1 0
BITMAP
3FF0
3FF0
3FF0
3C00
3C00
3C00
3C00
3C00
FFF0
FFF0
FFF0
FFF0
3C00
3C00
3C00
3C00
3C00
3C00
3C00
ENDCHAR
STARTCHAR 0047
ENCODING 71
SWIDTH 828 0
DWIDTH 23 0
BBX 22 20 1 0
BITMAP
00F800
07FF00
0FFF80
1FFFC0
3F0780
7C0300
780000
F80000
F03FFC
F03FFC
F03FFC
F03FFC
F800F0
7801F0
7C01F0
7E03E0
3FDFC0
1FFFC0
0FFF80
03FE00
ENDCHAR
STARTCHAR 0048
ENCODING 72
SWIDTH 576 0
DWIDTH 16 0
BBX 14 19 1 0
BITMAP
7C3C
7C3C
7C3C
7C3C
7C3C
7C3C
7C3C
7C3C
FFFC
FFFC
FFFC
FFFC
7C3C
7C3C
7C3C
7C3C
7C3C
7C3C
7C3C
ENDCHAR
STARTCHAR 0049
ENCODING 73
SWIDTH 252 0
DWIDTH 7 0
BBX 7 23 0 0
BITMAP
10
10
10
7C
FE
7C
7C
6C
00
00
00
7C
7C
7C
7C
7C
7C
7C
7C
7C
7C
7C
7C
ENDCHAR
STARTCHAR 004A
ENCODING 74
SWIDTH 468 0
DWIDTH 13 0
BBX 11 19 1 0
BITMAP
07E0
07E0
07E0
01E0
01E0
01E0
01E0
01E0
01E0
01E0
01E0
01E0
01E0
01E0
21E0
FFE0
FFC0
FFC0
3F00
ENDCHAR
STARTCHAR 004B
ENCODING 75
SWIDTH 576 0
DWIDTH 16 0
BBX 14 19 1 0
BITMAP
7C78
7C78
7C78
7C78
7C78
7CF8
7CF8
FFF0
FFF0
FFF8
FFF8
7C7C
7C3C
7C3C
7C3C
7C3C
7C3C
7C3C
7C3C
ENDCHAR
STARTCHAR 004C
ENCODING 76
SWIDTH 468 0
DWIDTH 13 0
BBX 10 19 2 0
BITMAP
F000
F000
F000
F000
F000
F000
F000
F000
F000
F000
F000
F000
F000
F000
F000
FFC0
FFC0
FFC0
FFC0
ENDCHAR
STARTCHAR 004D
ENCODING 77
SWIDTH 864 0
DWIDTH 24 0
BBX 22 20 1 0
BITMAP
202000
70303C
F83C3C
FE3E3C
7F3F3C
7FBFFC
7FFFFC
7FFFFC
7DFDFC
7CFCFC
7C7C3C
7C3C3C
7C3C3C
7C3C3C
7C3C3C
7C3C3C
7C3C3C
7C3C3C
7C3C3C
7C3C3C
ENDCHAR
STARTCHAR 004E
ENCODING 78
SWIDTH 576 0
DWIDTH 16 0
BBX 14 20 1 0
BITMAP
2000
707C
F87C
FE7C
7F7C
7FFC
7FFC
7FFC
7BFC
78FC
787C
787C
787C
787C
787C
787C
787C
787C
787C
787C
ENDCHAR
STARTCHAR 004F
ENCODING 79
SWIDTH 792 0
DWIDTH 22 0
BBX 21 20 1 0
BITMAP
00F800
07FF00
0FFF80
1FFFC0
3F07E0
7C01F0
7800F0
F800F8
F00078
F00078
F00078
F00078
F800F8
7800F0
7C01F0
7E03F0
3FDFE0
1FFFC0
0FFF80
03FE00
ENDCHAR
STARTCHAR 0050
ENCODING 80
SWIDTH 576 0
DWIDTH 16 0
BBX 15 19 1 0
BITMAP
7FF0
7FF8
7FFC
787C
783E
781E
781E
783E
FFFC
FFFC
FFF8
FFE0
7800
7800
7800
7800
7800
7800
7800
ENDCHAR
STARTCHAR 0051
ENCODING 81
SWIDTH 792 0
DWIDTH 22 0
BBX 21 21 1 -1
BITMAP
00F800
07FF00
0FFF80
1FFFC0
3F07E0
7C01F0
7800F0
F800F8
F00078
F00078
F00078
F00078
F800F8
7800F0
7C01F0
7E03F0
3FDFE0
1FFFF0
0FFFF0
03FEE0
000040
ENDCHAR
STARTCHAR 0052
ENCODING 82
SWIDTH 612 0
DWIDTH 17 0
BBX 15 19 1 0
BITMAP
7FF8
7FFC
7FFE
7C7E
7C1E
7C1E
7C1E
7C3E
FFFE
FFFC
FFF8
FFFC
7C3C
7C3E
7C3E
7C3E
7C3E
7C3E
7C3E
ENDCHAR
STARTCHAR 0053
ENCODING 83
SWIDTH 504 0
DWIDTH 14 0
BBX 13 20 1 0
BITMAP
0F80
3FC0
7FE0
7FF0
79F0
F8E0
7800
7C00
3F00
3F80
0FE0
07F0
01F0
00F8
30F8
F0F8
FFF0
7FF0
3FE0
1FC0
ENDCHAR
STARTCHAR 0054
ENCODING 84
SWIDTH 504 0
DWIDTH 14 0
BBX 13 19 1 0
BITMAP
FFF8
FFF8
FFF8
0F00
0F00
0F00
0F00
0F00
0F00
0F00
0F00
0F00
0F00
0F00
0F00
0F00
0F00
0F00
0F00
ENDCHAR
STARTCHAR 0055
ENCODING 85
SWIDTH 540 0
DWIDTH 15 0
BBX 13 19 1 0
BITMAP
F078
F078
F078
F078
F078
F078
F078
F078
F078
F078
F078
F078
F078
F878
F8F8
7DF0
7FF0
3FE0
1FC0
ENDCHAR
STARTCHAR 0056
ENCODING 86
SWIDTH 504 0
DWIDTH 14 0
BBX 13 19 0 0
BITMAP
F8F8
F8F8
F8F8
F8F8
F8F8
F8F8
F8F8
F8F8
F8F8
F8F8
78F0
78F0
78F0
78F0
7DE0
3DE0
3FE0
1FC0
0F80
ENDCHAR
STARTCHAR 0057
ENCODING 87
SWIDTH 792 0
DWIDTH 22 0
BBX 21 19 0 0
BITMAP
F8F8F8
F8F8F8
F8F8F8
F8F8F8
F8F8F8
F8F8F8
F8F8F8
F8F8F8
F8F8F8
F8F8F8
78F8F0
78F8F0
78F8F0
78F8F0
7DFDF0
3DFDE0
3FFFE0
1FDFC0
0F8F80
ENDCHAR
STARTCHAR 0058
ENCODING 88
SWIDTH 540 0
DWIDTH 15 0
BBX 13 19 1 0
BITMAP
F878
F878
F878
F878
F878
78F8
7FF0
3FF0
3FF0
7FF0
78F8
7878
F878
F878
F878
F878
F878
F878
F878
ENDCHAR
STARTCHAR 0059
ENCODING 89
SWIDTH 504 0
DWIDTH 14 0
BBX 13 19 1 0
BITMAP
F078
F078
F078
F078
F078
F078
F078
F078
F078
F8F8
79F0
7FF0
3FE0
1FC0
0F80
0F80
0F80
0F80
0F80
ENDCHAR
STARTCHAR 005A
ENCODING 90
SWIDTH 540 0
DWIDTH 15 0
BBX 13 19 1 0
BITMAP
FFF8
FFF8
FFF8
00F0
01E0
03E0
03C0
07C0
0780
0F80
1F00
1E00
3E00
3C00
7C00
FFF8
FFF8
FFF8
FFF8
ENDCHAR
STARTCHAR 005B
ENCODING 91
SWIDTH 252 0
DWIDTH 7 0
BBX 4 27 2 -4
BITMAP
F0
F0
C0
C0
C0
C0
C0
C0
C0
C0
C0
C0
C0
C0
C0
C0
C0
C0
C0
C0
C0
C0
C0
C0
C0
F0
F0
ENDCHAR
STARTCHAR 005C
ENCODING 92
SWIDTH 432 0
DWIDTH 12 0
BBX 8 20 2 0
BITMAP
E0
E0
F0
70
70
70
78
38
38
3C
1C
1C
1C
1E
0E
0E
0F
07
07
07
ENDCHAR
STARTCHAR 005D
ENCODING 93
SWIDTH 252 0
DWIDTH 7 0
BBX 4 27 2 -4
BITMAP
F0
F0
30
30
30
30
30
30
30
30
30
30
30
30
30
30
30
30
30
30
30
30
30
30
30
F0
F0
ENDCHAR
STARTCHAR 005E
ENCODING 94
SWIDTH 540 0
DWIDTH 15 0
BBX 11 8 2 9
BITMAP
1F00
1F00
3F80
3B80
71C0
71C0
E0E0
E0E0
ENDCHAR
STARTCHAR 005F
ENCODING 95
SWIDTH 540 0
DWIDTH 15 0
BBX 12 2 2 -3
BITMAP
FFF0
FFF0
ENDCHAR
STARTCHAR 0060
ENCODING 96
SWIDTH 144 0
DWIDTH 4 0
BBX 5 4 0 21
BITMAP
E0
70
30
38
ENDCHAR
STARTCHAR 0061
ENCODING 97
SWIDTH 576 0
DWIDTH 16 0
BBX 15 20 1 0
BITMAP
0780
1FE0
3FF0
7FF0
78F8
F878
F878
F878
F878
F878
F878
F878
F878
F878
F878
F878
FFFE
FFFE
FFFE
FFFE
ENDCHAR
STARTCHAR 0062
ENCODING 98
SWIDTH 648 0
DWIDTH 18 0
BBX 16 19 1 0
BITMAP
3FF8
3FFC
3FFE
3C3E
3C1F
3C1F
3C1E
FFFE
FFFE
FFFE
FFFF
3C1F
3C0F
3C0F
3C1F
3FFF
3FFE
3FFC
3FF8
ENDCHAR
STARTCHAR 0063
ENCODING 99
SWIDTH 684 0
DWIDTH 19 0
BBX 18 20 1 0
BITMAP
00F800
07FF00
0FFF80
1FFF80
3F0700
7C0200
780000
F80000
F00000
F00000
F00000
F00000
F80000
780000
7C0000
7E0300
3FDF80
1FFFC0
0FFF00
03FE00
ENDCHAR
STARTCHAR 0064
ENCODING 100
SWIDTH 684 0
DWIDTH 19 0
BBX 16 19 2 0
BITMAP
FFE0
FFF8
FFFC
F3FC
F03E
F01F
F01F
F00F
F00F
F00F
F00F
F00F
F01F
F03E
F07E
FFFC
FFF8
FFF0
FFC0
ENDCHAR
STARTCHAR 0065
ENCODING 101
SWIDTH 504 0
DWIDTH 14 0
BBX 13 19 1 0
BITMAP
7FC0
7FC0
7FC0
7C00
7C00
7C00
7C00
FFE0
FFE0
FFE0
FFE0
7C00
7C00
7C00
7C00
7FF8
7FF8
7FF8
7FF8
ENDCHAR
STARTCHAR 0066
ENCODING 102
SWIDTH 468 0
DWIDTH 13 0
BBX 12 19 1 0
BITMAP
3FF0
3FF0
3FF0
3C00
3C00
3C00
3C00
3C00
FFF0
FFF0
FFF0
FFF0
3C00
3C00
3C00
3C00
3C00
3C00
3C00
ENDCHAR
STARTCHAR 0067
ENCODING 103
SWIDTH 828 0
DWIDTH 23 0
BBX 22 20 1 0
BITMAP
00F800
07FF00
0FFF80
1FFFC0
3F0780
7C0300
780000
F80000
F03FFC
F03FFC
F03FFC
F03FFC
F800F0
7801F0
7C01F0
7E03E0
3FDFC0
1FFFC0
0FFF80
03FE00
ENDCHAR
STARTCHAR 0068
ENCODING 104
SWIDTH 576 0
DWIDTH 16 0
BBX 14 19 1 0
BITMAP
7C3C
7C3C
7C3C
7C3C
7C3C
7C3C
7C3C
7C3C
FFFC
FFFC
FFFC
FFFC
7C3C
7C3C
7C3C
7C3C
7C3C
7C3C
7C3C
ENDCHAR
STARTCHAR 0069
ENCODING 105
SWIDTH 252 0
DWIDTH 7 0
BBX 7 23 0 0
BITMAP
10
10
10
7C
FE
7C
7C
6C
00
00
00
7C
7C
7C
7C
7C
7C
7C
7C
7C
7C
7C
7C
ENDCHAR
STARTCHAR 006A
ENCODING 106
SWIDTH 468 0
DWIDTH 13 0
BBX 11 19 1 0
BITMAP
07E0
07E0
07E0
01E0
01E0
01E0
01E0
01E0
01E0
01E0
01E0
01E0
01E0
01E0
21E0
FFE0
FFC0
FFC0
3F00
ENDCHAR
STARTCHAR 006B
ENCODING 107
SWIDTH 576 0
DWIDTH 16 0
BBX 14 19 1 0
BITMAP
7C78
7C78
7C78
7C78
7C78
7CF8
7CF8
FFF0
FFF0
FFF8
FFF8
7C7C
7C3C
7C3C
7C3C
7C3C
7C3C
7C3C
7C3C
ENDCHAR
STARTCHAR 006C
ENCODING 108
SWIDTH 468 0
DWIDTH 13 0
BBX 10 19 2 0
BITMAP
F000
F000
F000
F000
F000
F000
F000
F000
F000
F000
F000
F000
F000
F000
F000
FFC0
FFC0
FFC0
FFC0
ENDCHAR
STARTCHAR 006D
ENCODING 109
SWIDTH 864 0
DWIDTH 24 0
BBX 22 20 1 0
BITMAP
202000
70303C
F83C3C
FE3E3C
7F3F3C
7FBFFC
7FFFFC
7FFFFC
7DFDFC
7CFCFC
7C7C3C
7C3C3C
7C3C3C
7C3C3C
7C3C3C
7C3C3C
7C3C3C
7C3C3C
7C3C3C
7C3C3C
ENDCHAR
STARTCHAR 006E
ENCODING 110
SWIDTH 576 0
DWIDTH 16 0
BBX 14 20 1 0
BITMAP
2000
707C
F87C
FE7C
7F7C
7FFC
7FFC
7FFC
7BFC
78FC
787C
787C
787C
787C
787C
787C
787C
787C
787C
787C
ENDCHAR
STARTCHAR 006F
ENCODING 111
SWIDTH 792 0
DWIDTH 22 0
BBX 21 20 1 0
BITMAP
00F800
07FF00
0FFF80
1FFFC0
3F07E0
7C01F0
7800F0
F800F8
F00078
F00078
F00078
F00078
F800F8
7800F0
7C01F0
7E03F0
3FDFE0
1FFFC0
0FFF80
03FE00
ENDCHAR
STARTCHAR 0070
ENCODING 112
SWIDTH 576 0
DWIDTH 16 0
BBX 15 19 1 0
BITMAP
7FF0
7FF8
7FFC
787C
783E
781E
781E
783E
FFFC
FFFC
FFF8
FFE0
7800
7800
7800
7800
7800
7800
7800
ENDCHAR
STARTCHAR 0071
ENCODING 113
SWIDTH 792 0
DWIDTH 22 0
BBX 21 21 1 -1
BITMAP
00F800
07FF00
0FFF80
1FFFC0
3F07E0
7C01F0
7800F0
F800F8
F00078
F00078
F00078
F00078
F800F8
7800F0
7C01F0
7E03F0
3FDFE0
1FFFF0
0FFFF0
03FEE0
000040
ENDCHAR
STARTCHAR 0072
ENCODING 114
SWIDTH 612 0
DWIDTH 17 0
BBX 15 19 1 0
BITMAP
7FF8
7FFC
7FFE
7C7E
7C1E
7C1E
7C1E
7C3E
FFFE
FFFC
FFF8
FFFC
7C3C
7C3E
7C3E
7C3E
7C3E
7C3E
7C3E
ENDCHAR
STARTCHAR 0073
ENCODING 115
SWIDTH 504 0
DWIDTH 14 0
BBX 13 20 1 0
BITMAP
0F80
3FC0
7FE0
7FF0
79F0
F8E0
7800
7C00
3F00
3F80
0FE0
07F0
01F0
00F8
30F8
F0F8
FFF0
7FF0
3FE0
1FC0
ENDCHAR
STARTCHAR 0074
ENCODING 116
SWIDTH 504 0
DWIDTH 14 0
BBX 13 19 1 0
BITMAP
FFF8
FFF8
FFF8
0F00
0F00
0F00
0F00
0F00
0F00
0F00
0F00
0F00
0F00
0F00
0F00
0F00
0F00
0F00
0F00
ENDCHAR
STARTCHAR 0075
ENCODING 117
SWIDTH 540 0
DWIDTH 15 0
BBX 13 19 1 0
BITMAP
F078
F078
F078
F078
F078
F078
F078
F078
F078
F078
F078
F078
F078
F878
F8F8
7DF0
7FF0
3FE0
1FC0
ENDCHAR
STARTCHAR 0076
ENCODING 118
SWIDTH 504 0
DWIDTH 14 0
BBX 13 19 0 0
BITMAP
F8F8
F8F8
F8F8
F8F8
F8F8
F8F8
F8F8
F8F8
F8F8
F8F8
78F0
78F0
78F0
78F0
7DE0
3DE0
3FE0
1FC0
0F80
ENDCHAR
STARTCHAR 0077
ENCODING 119
SWIDTH 792 0
DWIDTH 22 0
BBX 21 19 0 0
BITMAP
F8F8F8
F8F8F8
F8F8F8
F8F8F8
F8F8F8
F8F8F8
F8F8F8
F8F8F8
F8F8F8
F8F8F8
78F8F0
78F8F0
78F8F0
78F8F0
7DFDF0
3DFDE0
3FFFE0
1FDFC0
0F8F80
ENDCHAR
STARTCHAR 0078
ENCODING 120
SWIDTH 540 0
DWIDTH 15 0
BBX 13 19 1 0
BITMAP
F878
F878
F878
F878
F878
78F8
7FF0
3FF0
3FF0
7FF0
78F8
7878
F878
F878
F878
F878
F878
F878
F878
ENDCHAR
STARTCHAR 0079
ENCODING 121
SWIDTH 504 0
DWIDTH 14 0
BBX 13 19 1 0
BITMAP
F078
F078
F078
F078
F078
F078
F078
F078
F078
F8F8
79F0
7FF0
3FE0
1FC0
0F80
0F80
0F80
0F80
0F80
ENDCHAR
STARTCHAR 007A
ENCODING 122
SWIDTH 540 0
DWIDTH 15 0
BBX 13 19 1 0
BITMAP
FFF8
FFF8
FFF8
00F0
01E0
03E0
03C0
07C0
0780
0F80
1F00
1E00
3E00
3C00
7C00
FFF8
FFF8
FFF8
FFF8
ENDCHAR
STARTCHAR 007B
ENCODING 123
SWIDTH 324 0
DWIDTH 9 0
BBX 6 27 2 -4
BITMAP
1C
3C
7C
70
70
70
70
70
70
70
70
70
E0
E0
E0
70
70
70
70
70
70
70
70
70
78
3C
3C
ENDCHAR
STARTCHAR 007C
ENCODING 124
SWIDTH 180 0
DWIDTH 5 0
BBX 2 23 2 -3
BITMAP
C0
C0
C0
C0
C0
C0
C0
C0
C0
C0
C0
C0
C0
C0
C0
C0
C0
C0
C0
C0
C0
C0
C0
ENDCHAR
STARTCHAR 007D
ENCODING 125
SWIDTH 324 0
DWIDTH 9 0
BBX 6 27 2 -4
BITMAP
E0
F0
F0
30
30
30
30
30
30
30
30
38
3C
1C
3C
38
30
30
30
30
30
30
30
30
70
F0
E0
ENDCHAR
STARTCHAR 007E
ENCODING 126
SWIDTH 540 0
DWIDTH 15 0
BBX 12 4 2 7
BITMAP
FC00
FFF0
FFF0
03F0
ENDCHAR
STARTCHAR 00A1
ENCODING 161
SWIDTH 252 0
DWIDTH 7 0
BBX 4 20 2 -3
BITMAP
60
F0
F0
F0
60
00
00
F0
F0
F0
F0
F0
F0
F0
F0
F0
F0
F0
F0
F0
ENDCHAR
STARTCHAR 00A2
ENCODING 162
SWIDTH 504 0
DWIDTH 14 0
BBX 11 17 2 1
BITMAP
0E00
0E00
1FC0
3FE0
7FC0
F080
E000
E000
E000
E000
F000
F8C0
7FE0
3FE0
0F80
0E00
0E00
ENDCHAR
STARTCHAR 00A3
ENCODING 163
SWIDTH 576 0
DWIDTH 16 0
BBX 13 20 2 0
BITMAP
01F0
0FF8
1FF8
3FF8
3E18
7C00
7C00
7C00
7C00
FFE0
FFE0
FFE0
1E00
1E00
1E00
3E00
FC00
FFF8
FFF8
FFF8
ENDCHAR
STARTCHAR 00A4
ENCODING 164
SWIDTH 612 0
DWIDTH 17 0
BBX 13 14 2 2
BITMAP
4010
E7B8
FFF8
7FF0
7070
6038
6038
6038
6038
7070
7CF0
FFF8
EFB8
4010
ENDCHAR
STARTCHAR 00A5
ENCODING 165
SWIDTH 684 0
DWIDTH 19 0
BBX 15 19 2 0
BITMAP
F83E
783C
7C7C
3C7C
3E78
1EF8
1FF0
0FF0
0FE0
7FF8
7FF8
7FF8
07C0
7FF8
7FF8
7FF8
07C0
07C0
07C0
ENDCHAR
STARTCHAR 00A6
ENCODING 166
SWIDTH 180 0
DWIDTH 5 0
BBX 2 23 2 -3
BITMAP
C0
C0
C0
C0
C0
C0
C0
C0
C0
00
00
00
00
00
C0
C0
C0
C0
C0
C0
C0
C0
C0
ENDCHAR
STARTCHAR 00A7
ENCODING 167
SWIDTH 504 0
DWIDTH 14 0
BBX 10 23 2 -3
BITMAP
1E00
7F80
7FC0
FFC0
F3C0
F000
7800
3E00
3F80
7FC0
F7C0
E1C0
F1C0
FFC0
7F80
3F00
0F80
07C0
23C0
F7C0
FFC0
7F80
3F00
ENDCHAR
STARTCHAR 00A8
ENCODING 168
SWIDTH 396 0
DWIDTH 11 0
BBX 12 4 0 21
BITMAP
71E0
F9F0
F9F0
70E0
ENDCHAR
STARTCHAR 00A9
ENCODING 169
SWIDTH 828 0
DWIDTH 23 0
BBX 20 20 2 0
BITMAP
01F800
0FFE00
1E0780
3801C0
7000E0
60F060
C3FC70
C7F830
C70030
C60030
C60030
C60030
C70030
C3F830
E1F860
606060
3000C0
3C0380
0F0F00
07FC00
ENDCHAR
STARTCHAR 00AB
ENCODING 171
SWIDTH 612 0
DWIDTH 17 0
BBX 14 13 2 2
BITMAP
0F1C
1E3C
1C78
3CF0
78E0
F1C0
E3C0
F1E0
79E0
3CF0
1C78
1E3C
0F1C
ENDCHAR
STARTCHAR 00AC
ENCODING 172
SWIDTH 576 0
DWIDTH 16 0
BBX 13 8 2 3
BITMAP
FFF8
FFF8
FFF8
0078
0078
0078
0078
0078
ENDCHAR
STARTCHAR 00AE
ENCODING 174
SWIDTH 504 0
DWIDTH 14 0
BBX 11 11 2 9
BITMAP
1F00
6180
C0C0
9E60
9B60
9E20
9A60
9A60
C0C0
7180
1F00
ENDCHAR
STARTCHAR 00AF
ENCODING 175
SWIDTH 252 0
DWIDTH 7 0
BBX 8 4 0 21
BITMAP
FF
FF
FF
FF
ENDCHAR
STARTCHAR 00B0
ENCODING 176
SWIDTH 360 0
DWIDTH 10 0
BBX 6 7 2 13
BITMAP
78
FC
C4
84
84
FC
78
ENDCHAR
STARTCHAR 00B1
ENCODING 177
SWIDTH 576 0
DWIDTH 16 0
BBX 13 13 2 2
BITMAP
0F00
0F00
0F00
FFF8
FFF8
FFF8
0F00
0F00
0F00
0000
FFF8
FFF8
FFF8
ENDCHAR
STARTCHAR 00B4
ENCODING 180
SWIDTH 144 0
DWIDTH 4 0
BBX 4 4 0 21
BITMAP
70
70
E0
C0
ENDCHAR
STARTCHAR 00B6
ENCODING 182
SWIDTH 540 0
DWIDTH 15 0
BBX 11 23 2 -3
BITMAP
0660
3E60
7E60
FE60
FE60
FE60
FE60
FE60
FE60
7E60
3E60
0E60
0660
0660
0660
0660
0660
0660
0660
0660
0660
0660
0660
ENDCHAR
STARTCHAR 00B7
ENCODING 183
SWIDTH 252 0
DWIDTH 7 0
BBX 4 5 2 5
BITMAP
60
F0
F0
F0
60
ENDCHAR
STARTCHAR 00B8
ENCODING 184
SWIDTH 216 0
DWIDTH 6 0
BBX 6 6 0 -6
BITMAP
18
18
0C
4C
FC
7C
ENDCHAR
STARTCHAR 00BB
ENCODING 187
SWIDTH 612 0
DWIDTH 17 0
BBX 14 13 2 2
BITMAP
F3C0
F1E0
78E0
3CF0
1C78
1E3C
0F1C
0E3C
1E78
3CF0
78E0
71E0
E3C0
ENDCHAR
STARTCHAR 00BF
ENCODING 191
SWIDTH 432 0
DWIDTH 12 0
BBX 9 20 2 -3
BITMAP
1E00
1E00
1E00
1E00
0C00
0000
0000
1E00
1E00
1C00
3C00
3C00
7800
F000
F000
E200
F780
FF80
FF00
3E00
ENDCHAR
STARTCHAR 00C0
ENCODING 192
SWIDTH 576 0
DWIDTH 16 0
BBX 15 25 1 0
BITMAP
0C00
0E00
0600
0700
0000
0780
1FE0
3FF0
7FF0
78F8
F878
F878
F878
F878
F878
F878
F878
F878
F878
F878
F878
FFFE
FFFE
FFFE
FFFE
ENDCHAR
STARTCHAR 00C1
ENCODING 193
SWIDTH 576 0
DWIDTH 16 0
BBX 15 25 1 0
BITMAP
01C0
0380
0380
0300
0000
0780
1FE0
3FF0
7FF0
78F8
F878
F878
F878
F878
F878
F878
F878
F878
F878
F878
F878
FFFE
FFFE
FFFE
FFFE
ENDCHAR
STARTCHAR 00C2
ENCODING 194
SWIDTH 576 0
DWIDTH 16 0
BBX 15 25 1 0
BITMAP
0200
0700
0F80
1FC0
0000
0780
1FE0
3FF0
7FF0
78F8
F878
F878
F878
F878
F878
F878
F878
F878
F878
F878
F878
FFFE
FFFE
FFFE
FFFE
ENDCHAR
STARTCHAR 00C3
ENCODING 195
SWIDTH 576 0
DWIDTH 16 0
BBX 15 25 1 0
BITMAP
1E40
1FC0
1FC0
0000
0000
0780
1FE0
3FF0
7FF0
78F8
F878
F878
F878
F878
F878
F878
F878
F878
F878
F878
F878
FFFE
FFFE
FFFE
FFFE
ENDCHAR
STARTCHAR 00C4
ENCODING 196
SWIDTH 576 0
DWIDTH 16 0
BBX 15 25 1 0
BITMAP
78F0
7CF8
7CF8
38F0
0000
0780
1FE0
3FF0
7FF0
78F8
F878
F878
F878
F878
F878
F878
F878
F878
F878
F878
F878
FFFE
FFFE
FFFE
FFFE
ENDCHAR
STARTCHAR 00C5
ENCODING 197
SWIDTH 576 0
DWIDTH 16 0
BBX 15 27 1 0
BITMAP
0700
0F80
0C80
0CC0
0F80
0700
0000
0780
1FE0
3FF0
7FF0
78F8
F878
F878
F878
F878
F878
F878
F878
F878
F878
F878
F878
FFFE
FFFE
FFFE
FFFE
ENDCHAR
STARTCHAR 00C7
ENCODING 199
SWIDTH 684 0
DWIDTH 19 0
BBX 18 26 1 -6
BITMAP
00F800
07FF00
0FFF80
1FFF80
3F0700
7C0200
780000
F80000
F00000
F00000
F00000
F00000
F80000
780000
7C0000
7E0300
3FDF80
1FFFC0
0FFF00
03FE00
006000
006000
003000
013000
03F000
01E000
ENDCHAR
STARTCHAR 00C8
ENCODING 200
SWIDTH 504 0
DWIDTH 14 0
BBX 13 25 1 0
BITMAP
3800
1C00
0C00
0E00
0000
0000
7FC0
7FC0
7FC0
7C00
7C00
7C00
7C00
FFE0
FFE0
FFE0
FFE0
7C00
7C00
7C00
7C00
7FF8
7FF8
7FF8
7FF8
ENDCHAR
STARTCHAR 00C9
ENCODING 201
SWIDTH 504 0
DWIDTH 14 0
BBX 13 25 1 0
BITMAP
0380
0700
0600
0600
0000
0000
7FC0
7FC0
7FC0
7C00
7C00
7C00
7C00
FFE0
FFE0
FFE0
FFE0
7C00
7C00
7C00
7C00
7FF8
7FF8
7FF8
7FF8
ENDCHAR
STARTCHAR 00CA
ENCODING 202
SWIDTH 504 0
DWIDTH 14 0
BBX 13 25 1 0
BITMAP
0400
0E00
1F00
3F80
0000
0000
7FC0
7FC0
7FC0
7C00
7C00
7C00
7C00
FFE0
FFE0
FFE0
FFE0
7C00
7C00
7C00
7C00
7FF8
7FF8
7FF8
7FF8
ENDCHAR
STARTCHAR 00CB
ENCODING 203
SWIDTH 504 0
DWIDTH 14 0
BBX 13 25 1 0
BITMAP
F1E0
F9F0
F9F0
71E0
0000
0000
7FC0
7FC0
7FC0
7C00
7C00
7C00
7C00
FFE0
FFE0
FFE0
FFE0
7C00
7C00
7C00
7C00
7FF8
7FF8
7FF8
7FF8
ENDCHAR
STARTCHAR 00CC
ENCODING 204
SWIDTH 252 0
DWIDTH 7 0
BBX 5 17 1 0
BITMAP
E0
E0
70
00
00
78
78
78
78
78
78
78
78
78
78
78
78
ENDCHAR
STARTCHAR 00CD
ENCODING 205
SWIDTH 252 0
DWIDTH 7 0
BBX 5 17 2 0
BITMAP
38
70
60
00
00
F0
F0
F0
F0
F0
F0
F0
F0
F0
F0
F0
F0
ENDCHAR
STARTCHAR 00CE
ENCODING 206
SWIDTH 252 0
DWIDTH 7 0
BBX 6 18 1 0
BITMAP
20
70
78
FC
00
00
78
78
78
78
78
78
78
78
78
78
78
78
ENDCHAR
STARTCHAR 00CF
ENCODING 207
SWIDTH 252 0
DWIDTH 7 0
BBX 12 18 -2 0
BITMAP
70E0
F9E0
F9F0
F9E0
70C0
0000
0F00
0F00
0F00
0F00
0F00
0F00
0F00
0F00
0F00
0F00
0F00
0F00
ENDCHAR
STARTCHAR 00D1
ENCODING 209
SWIDTH 576 0
DWIDTH 16 0
BBX 14 25 1 0
BITMAP
1E40
1FC0
1FC0
0000
0000
2000
707C
F87C
FE7C
7F7C
7FFC
7FFC
7FFC
7BFC
78FC
787C
787C
787C
787C
787C
787C
787C
787C
787C
787C
ENDCHAR
STARTCHAR 00D2
ENCODING 210
SWIDTH 792 0
DWIDTH 22 0
BBX 21 25 1 0
BITMAP
01C000
00E000
006000
007000
000000
00F800
07FF00
0FFF80
1FFFC0
3F07E0
7C01F0
7800F0
F800F8
F00078
F00078
F00078
F00078
F800F8
7800F0
7C01F0
7E03F0
3FDFE0
1FFFC0
0FFF80
03FE00
ENDCHAR
STARTCHAR 00D3
ENCODING 211
SWIDTH 792 0
DWIDTH 22 0
BBX 21 25 1 0
BITMAP
001C00
003800
003000
007000
000000
00F800
07FF00
0FFF80
1FFFC0
3F07E0
7C01F0
7800F0
F800F8
F00078
F00078
F00078
F00078
F800F8
7800F0
7C01F0
7E03F0
3FDFE0
1FFFC0
0FFF80
03FE00
ENDCHAR
STARTCHAR 00D4
ENCODING 212
SWIDTH 792 0
DWIDTH 22 0
BBX 21 25 1 0
BITMAP
002000
007000
00F800
01FC00
000000
00F800
07FF00
0FFF80
1FFFC0
3F07E0
7C01F0
7800F0
F800F8
F00078
F00078
F00078
F00078
F800F8
7800F0
7C01F0
7E03F0
3FDFE0
1FFFC0
0FFF80
03FE00
ENDCHAR
STARTCHAR 00D5
ENCODING 213
SWIDTH 792 0
DWIDTH 22 0
BBX 21 25 1 0
BITMAP
01E000
01F800
01F800
000000
000000
00F800
07FF00
0FFF80
1FFFC0
3F07E0
7C01F0
7800F0
F800F8
F00078
F00078
F00078
F00078
F800F8
7800F0
7C01F0
7E03F0
3FDFE0
1FFFC0
0FFF80
03FE00
ENDCHAR
STARTCHAR 00D6
ENCODING 214
SWIDTH 792 0
DWIDTH 22 0
BBX 21 25 1 0
BITMAP
078F00
07CF00
07CF00
078F00
000000
00F800
07FF00
0FFF80
1FFFC0
3F07E0
7C01F0
7800F0
F800F8
F00078
F00078
F00078
F00078
F800F8
7800F0
7C01F0
7E03F0
3FDFE0
1FFFC0
0FFF80
03FE00
ENDCHAR
STARTCHAR 00D7
ENCODING 215
SWIDTH 540 0
DWIDTH 15 0
BBX 12 12 2 3
BITMAP
6060
F0F0
F9E0
7FC0
3F80
1F00
1F80
3FC0
7BE0
F1F0
E0E0
4040
ENDCHAR
STARTCHAR 00D8
ENCODING 216
SWIDTH 792 0
DWIDTH 22 0
BBX 21 21 1 0
BITMAP
01F860
07FFF0
1FFFE0
3FFFC0
7F07E0
7C0FF0
F80FF0
F81CF0
F03CF8
F078F8
F0F078
F1E0F8
F3C0F0
FB80F0
7F01F0
7E03E0
3FFFE0
3FFFC0
7FFF00
73FE00
200000
ENDCHAR
STARTCHAR 00D9
ENCODING 217
SWIDTH 540 0
DWIDTH 15 0
BBX 13 25 1 0
BITMAP
1C00
0E00
0600
0700
0000
0000
F078
F078
F078
F078
F078
F078
F078
F078
F078
F078
F078
F078
F078
F878
F8F8
7DF0
7FF0
3FE0
1FC0
ENDCHAR
STARTCHAR 00DA
ENCODING 218
SWIDTH 540 0
DWIDTH 15 0
BBX 13 25 1 0
BITMAP
01C0
0380
0300
0700
0000
0000
F078
F078
F078
F078
F078
F078
F078
F078
F078
F078
F078
F078
F078
F878
F8F8
7DF0
7FF0
3FE0
1FC0
ENDCHAR
STARTCHAR 00DB
ENCODING 219
SWIDTH 540 0
DWIDTH 15 0
BBX 13 25 1 0
BITMAP
0200
0700
0F80
1FC0
0000
0000
F078
F078
F078
F078
F078
F078
F078
F078
F078
F078
F078
F078
F078
F878
F8F8
7DF0
7FF0
3FE0
1FC0
ENDCHAR
STARTCHAR 00DC
ENCODING 220
SWIDTH 540 0
DWIDTH 15 0
BBX 13 25 1 0
BITMAP
78F0
7CF8
7CF0
78F0
0000
0000
F078
F078
F078
F078
F078
F078
F078
F078
F078
F078
F078
F078
F078
F878
F8F8
7DF0
7FF0
3FE0
1FC0
ENDCHAR
STARTCHAR 00DD
ENCODING 221
SWIDTH 504 0
DWIDTH 14 0
BBX 13 25 1 0
BITMAP
01C0
0380
0300
0700
0000
0000
F078
F078
F078
F078
F078
F078
F078
F078
F078
F8F8
79F0
7FF0
3FE0
1FC0
0F80
0F80
0F80
0F80
0F80
ENDCHAR
STARTCHAR 00E0
ENCODING 224
SWIDTH 576 0
DWIDTH 16 0
BBX 15 25 1 0
BITMAP
0C00
0E00
0600
0700
0000
0780
1FE0
3FF0
7FF0
78F8
F878
F878
F878
F878
F878
F878
F878
F878
F878
F878
F878
FFFE
FFFE
FFFE
FFFE
ENDCHAR
STARTCHAR 00E1
ENCODING 225
SWIDTH 576 0
DWIDTH 16 0
BBX 15 25 1 0
BITMAP
01C0
0380
0380
0300
0000
0780
1FE0
3FF0
7FF0
78F8
F878
F878
F878
F878
F878
F878
F878
F878
F878
F878
F878
FFFE
FFFE
FFFE
FFFE
ENDCHAR
STARTCHAR 00E2
ENCODING 226
SWIDTH 576 0
DWIDTH 16 0
BBX 15 25 1 0
BITMAP
0200
0700
0F80
1FC0
0000
0780
1FE0
3FF0
7FF0
78F8
F878
F878
F878
F878
F878
F878
F878
F878
F878
F878
F878
FFFE
FFFE
FFFE
FFFE
ENDCHAR
STARTCHAR 00E3
ENCODING 227
SWIDTH 576 0
DWIDTH 16 0
BBX 15 25 1 0
BITMAP
1E40
1FC0
1FC0
0000
0000
0780
1FE0
3FF0
7FF0
78F8
F878
F878
F878
F878
F878
F878
F878
F878
F878
F878
F878
FFFE
FFFE
FFFE
FFFE
ENDCHAR
STARTCHAR 00E4
ENCODING 228
SWIDTH 576 0
DWIDTH 16 0
BBX 15 25 1 0
BITMAP
78F0
7CF8
7CF8
38F0
0000
0780
1FE0
3FF0
7FF0
78F8
F878
F878
F878
F878
F878
F878
F878
F878
F878
F878
F878
FFFE
FFFE
FFFE
FFFE
ENDCHAR
STARTCHAR 00E5
ENCODING 229
SWIDTH 576 0
DWIDTH 16 0
BBX 15 27 1 0
BITMAP
0700
0F80
0C80
0CC0
0F80
0700
0000
0780
1FE0
3FF0
7FF0
78F8
F878
F878
F878
F878
F878
F878
F878
F878
F878
F878
F878
FFFE
FFFE
FFFE
FFFE
ENDCHAR
STARTCHAR 00E7
ENCODING 231
SWIDTH 684 0
DWIDTH 19 0
BBX 18 26 1 -6
BITMAP
00F800
07FF00
0FFF80
1FFF80
3F0700
7C0200
780000
F80000
F00000
F00000
F00000
F00000
F80000
780000
7C0000
7E0300
3FDF80
1FFFC0
0FFF00
03FE00
006000
006000
003000
013000
03F000
01E000
ENDCHAR
STARTCHAR 00E8
ENCODING 232
SWIDTH 504 0
DWIDTH 14 0
BBX 13 25 1 0
BITMAP
3800
1C00
0C00
0E00
0000
0000
7FC0
7FC0
7FC0
7C00
7C00
7C00
7C00
FFE0
FFE0
FFE0
FFE0
7C00
7C00
7C00
7C00
7FF8
7FF8
7FF8
7FF8
ENDCHAR
STARTCHAR 00E9
ENCODING 233
SWIDTH 504 0
DWIDTH 14 0
BBX 13 25 1 0
BITMAP
0380
0700
0600
0600
0000
0000
7FC0
7FC0
7FC0
7C00
7C00
7C00
7C00
FFE0
FFE0
FFE0
FFE0
7C00
7C00
7C00
7C00
7FF8
7FF8
7FF8
7FF8
ENDCHAR
STARTCHAR 00EA
ENCODING 234
SWIDTH 504 0
DWIDTH 14 0
BBX 13 25 1 0
BITMAP
0400
0E00
1F00
3F80
0000
0000
7FC0
7FC0
7FC0
7C00
7C00
7C00
7C00
FFE0
FFE0
FFE0
FFE0
7C00
7C00
7C00
7C00
7FF8
7FF8
7FF8
7FF8
ENDCHAR
STARTCHAR 00EB
ENCODING 235
SWIDTH 504 0
DWIDTH 14 0
BBX 13 25 1 0
BITMAP
F1E0
F9F0
F9F0
71E0
0000
0000
7FC0
7FC0
7FC0
7C00
7C00
7C00
7C00
FFE0
FFE0
FFE0
FFE0
7C00
7C00
7C00
7C00
7FF8
7FF8
7FF8
7FF8
ENDCHAR
STARTCHAR 00EC
ENCODING 236
SWIDTH 252 0
DWIDTH 7 0
BBX 5 17 1 0
BITMAP
E0
E0
70
00
00
78
78
78
78
78
78
78
78
78
78
78
78
ENDCHAR
STARTCHAR 00ED
ENCODING 237
SWIDTH 252 0
DWIDTH 7 0
BBX 5 17 2 0
BITMAP
38
70
60
00
00
F0
F0
F0
F0
F0
F0
F0
F0
F0
F0
F0
F0
ENDCHAR
STARTCHAR 00EE
ENCODING 238
SWIDTH 252 0
DWIDTH 7 0
BBX 6 18 1 0
BITMAP
20
70
78
FC
00
00
78
78
78
78
78
78
78
78
78
78
78
78
ENDCHAR
STARTCHAR 00EF
ENCODING 239
SWIDTH 252 0
DWIDTH 7 0
BBX 12 18 -2 0
BITMAP
70E0
F9E0
F9F0
F9E0
70C0
0000
0F00
0F00
0F00
0F00
0F00
0F00
0F00
0F00
0F00
0F00
0F00
0F00
ENDCHAR
STARTCHAR 00F1
ENCODING 241
SWIDTH 576 0
DWIDTH 16 0
BBX 14 25 1 0
BITMAP
1E40
1FC0
1FC0
0000
0000
2000
707C
F87C
FE7C
7F7C
7FFC
7FFC
7FFC
7BFC
78FC
787C
787C
787C
787C
787C
787C
787C
787C
787C
787C
ENDCHAR
STARTCHAR 00F2
ENCODING 242
SWIDTH 792 0
DWIDTH 22 0
BBX 21 25 1 0
BITMAP
01C000
00E000
006000
007000
000000
00F800
07FF00
0FFF80
1FFFC0
3F07E0
7C01F0
7800F0
F800F8
F00078
F00078
F00078
F00078
F800F8
7800F0
7C01F0
7E03F0
3FDFE0
1FFFC0
0FFF80
03FE00
ENDCHAR
STARTCHAR 00F3
ENCODING 243
SWIDTH 792 0
DWIDTH 22 0
BBX 21 25 1 0
BITMAP
001C00
003800
003000
007000
000000
00F800
07FF00
0FFF80
1FFFC0
3F07E0
7C01F0
7800F0
F800F8
F00078
F00078
F00078
F00078
F800F8
7800F0
7C01F0
7E03F0
3FDFE0
1FFFC0
0FFF80
03FE00
ENDCHAR
STARTCHAR 00F4
ENCODING 244
SWIDTH 792 0
DWIDTH 22 0
BBX 21 25 1 0
BITMAP
002000
007000
00F800
01FC00
000000
00F800
07FF00
0FFF80
1FFFC0
3F07E0
7C01F0
7800F0
F800F8
F00078
F00078
F00078
F00078
F800F8
7800F0
7C01F0
7E03F0
3FDFE0
1FFFC0
0FFF80
03FE00
ENDCHAR
STARTCHAR 00F5
ENCODING 245
SWIDTH 792 0
DWIDTH 22 0
BBX 21 25 1 0
BITMAP
01E000
01F800
01F800
000000
000000
00F800
07FF00
0FFF80
1FFFC0
3F07E0
7C01F0
7800F0
F800F8
F00078
F00078
F00078
F00078
F800F8
7800F0
7C01F0
7E03F0
3FDFE0
1FFFC0
0FFF80
03FE00
ENDCHAR
STARTCHAR 00F6
ENCODING 246
SWIDTH 792 0
DWIDTH 22 0
BBX 21 25 1 0
BITMAP
078F00
07CF00
07CF00
078F00
000000
00F800
07FF00
0FFF80
1FFFC0
3F07E0
7C01F0
7800F0
F800F8
F00078
F00078
F00078
F00078
F800F8
7800F0
7C01F0
7E03F0
3FDFE0
1FFFC0
0FFF80
03FE00
ENDCHAR
STARTCHAR 00F7
ENCODING 247
SWIDTH 576 0
DWIDTH 16 0
BBX 13 14 2 2
BITMAP
0600
0F00
0F00
0700
0000
0000
FFF8
FFF8
FFF8
0000
0600
0F00
0F00
0700
ENDCHAR
STARTCHAR 00F8
ENCODING 248
SWIDTH 792 0
DWIDTH 22 0
BBX 21 21 1 0
BITMAP
01F860
07FFF0
1FFFE0
3FFFC0
7F07E0
7C0FF0
F80FF0
F81CF0
F03CF8
F078F8
F0F078
F1E0F8
F3C0F0
FB80F0
7F01F0
7E03E0
3FFFE0
3FFFC0
7FFF00
73FE00
200000
ENDCHAR
STARTCHAR 00F9
ENCODING 249
SWIDTH 540 0
DWIDTH 15 0
BBX 13 25 1 0
BITMAP
1C00
0E00
0600
0700
0000
0000
F078
F078
F078
F078
F078
F078
F078
F078
F078
F078
F078
F078
F078
F878
F8F8
7DF0
7FF0
3FE0
1FC0
ENDCHAR
STARTCHAR 00FA
ENCODING 250
SWIDTH 540 0
DWIDTH 15 0
BBX 13 25 1 0
BITMAP
01C0
0380
0300
0700
0000
0000
F078
F078
F078
F078
F078
F078
F078
F078
F078
F078
F078
F078
F078
F878
F8F8
7DF0
7FF0
3FE0
1FC0
ENDCHAR
STARTCHAR 00FB
ENCODING 251
SWIDTH 540 0
DWIDTH 15 0
BBX 13 25 1 0
BITMAP
0200
0700
0F80
1FC0
0000
0000
F078
F078
F078
F078
F078
F078
F078
F078
F078
F078
F078
F078
F078
F878
F8F8
7DF0
7FF0
3FE0
1FC0
ENDCHAR
STARTCHAR 00FC
ENCODING 252
SWIDTH 540 0
DWIDTH 15 0
BBX 13 25 1 0
BITMAP
78F0
7CF8
7CF0
78F0
0000
0000
F078
F078
F078
F078
F078
F078
F078
F078
F078
F078
F078
F078
F078
F878
F8F8
7DF0
7FF0
3FE0
1FC0
ENDCHAR
STARTCHAR 00FD
ENCODING 253
SWIDTH 504 0
DWIDTH 14 0
BBX 13 25 1 0
BITMAP
01C0
0380
0300
0700
0000
0000
F078
F078
F078
F078
F078
F078
F078
F078
F078
F8F8
79F0
7FF0
3FE0
1FC0
0F80
0F80
0F80
0F80
0F80
ENDCHAR
STARTCHAR 00FF
ENCODING 255
SWIDTH 504 0
DWIDTH 14 0
BBX 13 25 1 0
BITMAP
78F0
7CF0
78F0
78F0
0000
0000
F078
F078
F078
F078
F078
F078
F078
F078
F078
F8F8
79F0
7FF0
3FE0
1FC0
0F80
0F80
0F80
0F80
0F80
ENDCHAR
STARTCHAR 0100
ENCODING 256
SWIDTH 576 0
DWIDTH 16 0
BBX 15 25 1 0
BITMAP
1FE0
1FE0
1FE0
1FE0
0000
0780
1FE0
3FF0
7FF0
78F8
F878
F878
F878
F878
F878
F878
F878
F878
F878
F878
F878
FFFE
FFFE
FFFE
FFFE
ENDCHAR
STARTCHAR 0101
ENCODING 257
SWIDTH 576 0
DWIDTH 16 0
BBX 15 25 1 0
BITMAP
1FE0
1FE0
1FE0
1FE0
0000
0780
1FE0
3FF0
7FF0
78F8
F878
F878
F878
F878
F878
F878
F878
F878
F878
F878
F878
FFFE
FFFE
FFFE
FFFE
ENDCHAR
STARTCHAR 0102
ENCODING 258
SWIDTH 576 0
DWIDTH 16 0
BBX 15 24 1 0
BITMAP
0FC0
0F80
0700
0000
0780
1FE0
3FF0
7FF0
78F8
F878
F878
F878
F878
F878
F878
F878
F878
F878
F878
F878
FFFE
FFFE
FFFE
FFFE
ENDCHAR
STARTCHAR 0103
ENCODING 259
SWIDTH 576 0
DWIDTH 16 0
BBX 15 24 1 0
BITMAP
0FC0
0F80
0700
0000
0780
1FE0
3FF0
7FF0
78F8
F878
F878
F878
F878
F878
F878
F878
F878
F878
F878
F878
FFFE
FFFE
FFFE
FFFE
ENDCHAR
STARTCHAR 0104
ENCODING 260
SWIDTH 576 0
DWIDTH 16 0
BBX 16 26 1 -6
BITMAP
0780
1FE0
3FF0
7FF0
78F8
F878
F878
F878
F878
F878
F878
F878
F878
F878
F878
F878
FFFE
FFFE
FFFE
FFFE
0038
0030
0070
0036
003F
000C
ENDCHAR
STARTCHAR 0105
ENCODING 261
SWIDTH 576 0
DWIDTH 16 0
BBX 16 26 1 -6
BITMAP
0780
1FE0
3FF0
7FF0
78F8
F878
F878
F878
F878
F878
F878
F878
F878
F878
F878
F878
FFFE
FFFE
FFFE
FFFE
0038
0030
0070
0036
003F
000C
ENDCHAR
STARTCHAR 0106
ENCODING 262
SWIDTH 684 0
DWIDTH 19 0
BBX 18 25 1 0
BITMAP
001800
003800
003000
006000
000000
00F800
07FF00
0FFF80
1FFF80
3F0700
7C0200
780000
F80000
F00000
F00000
F00000
F00000
F80000
780000
7C0000
7E0300
3FDF80
1FFFC0
0FFF00
03FE00
ENDCHAR
STARTCHAR 0107
ENCODING 263
SWIDTH 684 0
DWIDTH 19 0
BBX 18 25 1 0
BITMAP
001800
003800
003000
006000
000000
00F800
07FF00
0FFF80
1FFF80
3F0700
7C0200
780000
F80000
F00000
F00000
F00000
F00000
F80000
780000
7C0000
7E0300
3FDF80
1FFFC0
0FFF00
03FE00
ENDCHAR
STARTCHAR 010A
ENCODING 266
SWIDTH 684 0
DWIDTH 19 0
BBX 18 26 1 0
BITMAP
007000
00F800
00F800
00F800
007000
000000
00F800
07FF00
0FFF80
1FFF80
3F0700
7C0200
780000
F80000
F00000
F00000
F00000
F00000
F80000
780000
7C0000
7E0300
3FDF80
1FFFC0
0FFF00
03FE00
ENDCHAR
STARTCHAR 010B
ENCODING 267
SWIDTH 684 0
DWIDTH 19 0
BBX 18 26 1 0
BITMAP
007000
00F800
00F800
00F800
007000
000000
00F800
07FF00
0FFF80
1FFF80
3F0700
7C0200
780000
F80000
F00000
F00000
F00000
F00000
F80000
780000
7C0000
7E0300
3FDF80
1FFFC0
0FFF00
03FE00
ENDCHAR
STARTCHAR 010C
ENCODING 268
SWIDTH 684 0
DWIDTH 19 0
BBX 18 25 1 0
BITMAP
01F800
00F800
007000
002000
000000
00F800
07FF00
0FFF80
1FFF80
3F0700
7C0200
780000
F80000
F00000
F00000
F00000
F00000
F80000
780000
7C0000
7E0300
3FDF80
1FFFC0
0FFF00
03FE00
ENDCHAR
STARTCHAR 010D
ENCODING 269
SWIDTH 684 0
DWIDTH 19 0
BBX 18 25 1 0
BITMAP
01F800
00F800
007000
002000
000000
00F800
07FF00
0FFF80
1FFF80
3F0700
7C0200
780000
F80000
F00000
F00000
F00000
F00000
F80000
780000
7C0000
7E0300
3FDF80
1FFFC0
0FFF00
03FE00
ENDCHAR
STARTCHAR 010E
ENCODING 270
SWIDTH 684 0
DWIDTH 19 0
BBX 16 25 2 0
BITMAP
1F80
0F00
0700
0600
0000
0000
FFE0
FFF8
FFFC
F3FC
F03E
F01F
F01F
F00F
F00F
F00F
F00F
F00F
F01F
F03E
F07E
FFFC
FFF8
FFF0
FFC0
ENDCHAR
STARTCHAR 010F
ENCODING 271
SWIDTH 684 0
DWIDTH 19 0
BBX 16 25 2 0
BITMAP
1F80
0F00
0700
0600
0000
0000
FFE0
FFF8
FFFC
F3FC
F03E
F01F
F01F
F00F
F00F
F00F
F00F
F00F
F01F
F03E
F07E
FFFC
FFF8
FFF0
FFC0
ENDCHAR
STARTCHAR 0110
ENCODING 272
SWIDTH 684 0
DWIDTH 19 0
BBX 18 19 1 0
BITMAP
7FF800
7FFC00
7FFE00
78FF00
781F80
780780
7807C0
FFC7C0
FFC3C0
FFC3C0
FFC3C0
7807C0
780780
780F80
781F80
7FFF00
7FFE00
7FFC00
7FE000
ENDCHAR
STARTCHAR 0111
ENCODING 273
SWIDTH 684 0
DWIDTH 19 0
BBX 18 19 1 0
BITMAP
7FF800
7FFC00
7FFE00
78FF00
781F80
780780
7807C0
FFC7C0
FFC3C0
FFC3C0
FFC3C0
7807C0
780780
780F80
781F80
7FFF00
7FFE00
7FFC00
7FE000
ENDCHAR
STARTCHAR 0112
ENCODING 274
SWIDTH 504 0
DWIDTH 14 0
BBX 13 25 1 0
BITMAP
3FC0
3FC0
3FC0
3FC0
0000
0000
7FC0
7FC0
7FC0
7C00
7C00
7C00
7C00
FFE0
FFE0
FFE0
FFE0
7C00
7C00
7C00
7C00
7FF8
7FF8
7FF8
7FF8
ENDCHAR
STARTCHAR 0113
ENCODING 275
SWIDTH 504 0
DWIDTH 14 0
BBX 13 25 1 0
BITMAP
3FC0
3FC0
3FC0
3FC0
0000
0000
7FC0
7FC0
7FC0
7C00
7C00
7C00
7C00
FFE0
FFE0
FFE0
FFE0
7C00
7C00
7C00
7C00
7FF8
7FF8
7FF8
7FF8
ENDCHAR
STARTCHAR 0116
ENCODING 278
SWIDTH 504 0
DWIDTH 14 0
BBX 13 26 1 0
BITMAP
0E00
0F00
1F00
0F00
0600
0000
0000
7FC0
7FC0
7FC0
7C00
7C00
7C00
7C00
FFE0
FFE0
FFE0
FFE0
7C00
7C00
7C00
7C00
7FF8
7FF8
7FF8
7FF8
ENDCHAR
STARTCHAR 0117
ENCODING 279
SWIDTH 504 0
DWIDTH 14 0
BBX 13 26 1 0
BITMAP
0E00
0F00
1F00
0F00
0600
0000
0000
7FC0
7FC0
7FC0
7C00
7C00
7C00
7C00
FFE0
FFE0
FFE0
FFE0
7C00
7C00
7C00
7C00
7FF8
7FF8
7FF8
7FF8
ENDCHAR
STARTCHAR 0118
ENCODING 280
SWIDTH 504 0
DWIDTH 14 0
BBX 14 25 1 -6
BITMAP
7FC0
7FC0
7FC0
7C00
7C00
7C00
7C00
FFE0
FFE0
FFE0
FFE0
7C00
7C00
7C00
7C00
7FF8
7FF8
7FF8
7FF8
0070
00E0
00C0
00EC
007C
0030
ENDCHAR
STARTCHAR 0119
ENCODING 281
SWIDTH 504 0
DWIDTH 14 0
BBX 14 25 1 -6
BITMAP
7FC0
7FC0
7FC0
7C00
7C00
7C00
7C00
FFE0
FFE0
FFE0
FFE0
7C00
7C00
7C00
7C00
7FF8
7FF8
7FF8
7FF8
0070
00E0
00C0
00EC
007C
0030
ENDCHAR
STARTCHAR 011A
ENCODING 282
SWIDTH 504 0
DWIDTH 14 0
BBX 13 25 1 0
BITMAP
3F80
1F00
0E00
0400
0000
0000
7FC0
7FC0
7FC0
7C00
7C00
7C00
7C00
FFE0
FFE0
FFE0
FFE0
7C00
7C00
7C00
7C00
7FF8
7FF8
7FF8
7FF8
ENDCHAR
STARTCHAR 011B
ENCODING 283
SWIDTH 504 0
DWIDTH 14 0
BBX 13 25 1 0
BITMAP
3F80
1F00
0E00
0400
0000
0000
7FC0
7FC0
7FC0
7C00
7C00
7C00
7C00
FFE0
FFE0
FFE0
FFE0
7C00
7C00
7C00
7C00
7FF8
7FF8
7FF8
7FF8
ENDCHAR
STARTCHAR 011E
ENCODING 286
SWIDTH 828 0
DWIDTH 23 0
BBX 22 24 1 0
BITMAP
01F800
00F800
007000
000000
00F800
07FF00
0FFF80
1FFFC0
3F0780
7C0300
780000
F80000
F03FFC
F03FFC
F03FFC
F03FFC
F800F0
7801F0
7C01F0
7E03E0
3FDFC0
1FFFC0
0FFF80
03FE00
ENDCHAR
STARTCHAR 011F
ENCODING 287
SWIDTH 828 0
DWIDTH 23 0
BBX 22 24 1 0
BITMAP
01F800
00F800
007000
000000
00F800
07FF00
0FFF80
1FFFC0
3F0780
7C0300
780000
F80000
F03FFC
F03FFC
F03FFC
F03FFC
F800F0
7801F0
7C01F0
7E03E0
3FDFC0
1FFFC0
0FFF80
03FE00
ENDCHAR
STARTCHAR 0120
ENCODING 288
SWIDTH 828 0
DWIDTH 23 0
BBX 22 26 1 0
BITMAP
007000
00F800
00F800
00F800
007000
000000
00F800
07FF00
0FFF80
1FFFC0
3F0780
7C0300
780000
F80000
F03FFC
F03FFC
F03FFC
F03FFC
F800F0
7801F0
7C01F0
7E03E0
3FDFC0
1FFFC0
0FFF80
03FE00
ENDCHAR
STARTCHAR 0121
ENCODING 289
SWIDTH 828 0
DWIDTH 23 0
BBX 22 26 1 0
BITMAP
007000
00F800
00F800
00F800
007000
000000
00F800
07FF00
0FFF80
1FFFC0
3F0780
7C0300
780000
F80000
F03FFC
F03FFC
F03FFC
F03FFC
F800F0
7801F0
7C01F0
7E03E0
3FDFC0
1FFFC0
0FFF80
03FE00
ENDCHAR
STARTCHAR 0124
ENCODING 292
SWIDTH 576 0
DWIDTH 16 0
BBX 14 25 1 0
BITMAP
0100
0380
07C0
0FE0
0000
0000
7C3C
7C3C
7C3C
7C3C
7C3C
7C3C
7C3C
7C3C
FFFC
FFFC
FFFC
FFFC
7C3C
7C3C
7C3C
7C3C
7C3C
7C3C
7C3C
ENDCHAR
STARTCHAR 0125
ENCODING 293
SWIDTH 576 0
DWIDTH 16 0
BBX 14 25 1 0
BITMAP
0100
0380
07C0
0FE0
0000
0000
7C3C
7C3C
7C3C
7C3C
7C3C
7C3C
7C3C
7C3C
FFFC
FFFC
FFFC
FFFC
7C3C
7C3C
7C3C
7C3C
7C3C
7C3C
7C3C
ENDCHAR
STARTCHAR 0128
ENCODING 296
SWIDTH 252 0
DWIDTH 7 0
BBX 7 17 0 0
BITMAP
FE
FE
0C
00
00
3C
3C
3C
3C
3C
3C
3C
3C
3C
3C
3C
3C
ENDCHAR
STARTCHAR 0129
ENCODING 297
SWIDTH 252 0
DWIDTH 7 0
BBX 7 17 0 0
BITMAP
FE
FE
0C
00
00
3C
3C
3C
3C
3C
3C
3C
3C
3C
3C
3C
3C
ENDCHAR
STARTCHAR 012A
ENCODING 298
SWIDTH 252 0
DWIDTH 7 0
BBX 8 17 0 0
BITMAP
FF
FF
FF
00
00
3C
3C
3C
3C
3C
3C
3C
3C
3C
3C
3C
3C
ENDCHAR
STARTCHAR 012B
ENCODING 299
SWIDTH 252 0
DWIDTH 7 0
BBX 8 17 0 0
BITMAP
FF
FF
FF
00
00
3C
3C
3C
3C
3C
3C
3C
3C
3C
3C
3C
3C
ENDCHAR
STARTCHAR 012E
ENCODING 302
SWIDTH 252 0
DWIDTH 7 0
BBX 7 29 0 -6
BITMAP
10
10
10
7C
FE
7C
7C
6C
00
00
00
7C
7C
7C
7C
7C
7C
7C
7C
7C
7C
7C
7C
70
60
E0
EC
7E
10
ENDCHAR
STARTCHAR 012F
ENCODING 303
SWIDTH 252 0
DWIDTH 7 0
BBX 7 29 0 -6
BITMAP
10
10
10
7C
FE
7C
7C
6C
00
00
00
7C
7C
7C
7C
7C
7C
7C
7C
7C
7C
7C
7C
70
60
E0
EC
7E
10
ENDCHAR
STARTCHAR 0130
ENCODING 304
SWIDTH 252 0
DWIDTH 7 0
BBX 5 18 1 0
BITMAP
78
F8
F8
78
00
00
78
78
78
78
78
78
78
78
78
78
78
78
ENDCHAR
STARTCHAR 0139
ENCODING 313
SWIDTH 468 0
DWIDTH 13 0
BBX 10 25 2 0
BITMAP
3800
7000
7000
6000
0000
0000
F000
F000
F000
F000
F000
F000
F000
F000
F000
F000
F000
F000
F000
F000
F000
FFC0
FFC0
FFC0
FFC0
ENDCHAR
STARTCHAR 013A
ENCODING 314
SWIDTH 468 0
DWIDTH 13 0
BBX 10 25 2 0
BITMAP
3800
7000
7000
6000
0000
0000
F000
F000
F000
F000
F000
F000
F000
F000
F000
F000
F000
F000
F000
F000
F000
FFC0
FFC0
FFC0
FFC0
ENDCHAR
STARTCHAR 013D
ENCODING 317
SWIDTH 468 0
DWIDTH 13 0
BBX 12 25 0 0
BITMAP
FE00
7C00
3800
1000
0000
0000
3C00
3C00
3C00
3C00
3C00
3C00
3C00
3C00
3C00
3C00
3C00
3C00
3C00
3C00
3C00
3FF0
3FF0
3FF0
3FF0
ENDCHAR
STARTCHAR 013E
ENCODING 318
SWIDTH 468 0
DWIDTH 13 0
BBX 12 25 0 0
BITMAP
FE00
7C00
3800
1000
0000
0000
3C00
3C00
3C00
3C00
3C00
3C00
3C00
3C00
3C00
3C00
3C00
3C00
3C00
3C00
3C00
3FF0
3FF0
3FF0
3FF0
ENDCHAR
STARTCHAR 0141
ENCODING 321
SWIDTH 504 0
DWIDTH 14 0
BBX 14 19 0 0
BITMAP
1E00
1E00
1E00
1E00
1E00
1E20
1EE0
1FE0
1F80
3E00
FE00
7E00
1E00
1E00
1E00
1FFC
1FFC
1FFC
1FFC
ENDCHAR
STARTCHAR 0142
ENCODING 322
SWIDTH 504 0
DWIDTH 14 0
BBX 14 19 0 0
BITMAP
1E00
1E00
1E00
1E00
1E00
1E20
1EE0
1FE0
1F80
3E00
FE00
7E00
1E00
1E00
1E00
1FFC
1FFC
1FFC
1FFC
ENDCHAR
STARTCHAR 0143
ENCODING 323
SWIDTH 576 0
DWIDTH 16 0
BBX 14 25 1 0
BITMAP
01C0
01C0
0180
0300
0000
2000
707C
F87C
FE7C
7F7C
7FFC
7FFC
7FFC
7BFC
78FC
787C
787C
787C
787C
787C
787C
787C
787C
787C
787C
ENDCHAR
STARTCHAR 0144
ENCODING 324
SWIDTH 576 0
DWIDTH 16 0
BBX 14 25 1 0
BITMAP
01C0
01C0
0180
0300
0000
2000
707C
F87C
FE7C
7F7C
7FFC
7FFC
7FFC
7BFC
78FC
787C
787C
787C
787C
787C
787C
787C
787C
787C
787C
ENDCHAR
STARTCHAR 0147
ENCODING 327
SWIDTH 576 0
DWIDTH 16 0
BBX 14 25 1 0
BITMAP
0FC0
07C0
0380
0100
0000
2000
707C
F87C
FE7C
7F7C
7FFC
7FFC
7FFC
7BFC
78FC
787C
787C
787C
787C
787C
787C
787C
787C
787C
787C
ENDCHAR
STARTCHAR 0148
ENCODING 328
SWIDTH 576 0
DWIDTH 16 0
BBX 14 25 1 0
BITMAP
0FC0
07C0
0380
0100
0000
2000
707C
F87C
FE7C
7F7C
7FFC
7FFC
7FFC
7BFC
78FC
787C
787C
787C
787C
787C
787C
787C
787C
787C
787C
ENDCHAR
STARTCHAR 014C
ENCODING 332
SWIDTH 792 0
DWIDTH 22 0
BBX 21 25 1 0
BITMAP
01FC00
01FC00
01FC00
01FC00
000000
00F800
07FF00
0FFF80
1FFFC0
3F07E0
7C01F0
7800F0
F800F8
F00078
F00078
F00078
F00078
F800F8
7800F0
7C01F0
7E03F0
3FDFE0
1FFFC0
0FFF80
03FE00
ENDCHAR
STARTCHAR 014D
ENCODING 333
SWIDTH 792 0
DWIDTH 22 0
BBX 21 25 1 0
BITMAP
01FC00
01FC00
01FC00
01FC00
000000
00F800
07FF00
0FFF80
1FFFC0
3F07E0
7C01F0
7800F0
F800F8
F00078
F00078
F00078
F00078
F800F8
7800F0
7C01F0
7E03F0
3FDFE0
1FFFC0
0FFF80
03FE00
ENDCHAR
STARTCHAR 0150
ENCODING 336
SWIDTH 792 0
DWIDTH 22 0
BBX 21 25 1 0
BITMAP
00E700
00CE00
01CC00
019C00
000000
00F800
07FF00
0FFF80
1FFFC0
3F07E0
7C01F0
7800F0
F800F8
F00078
F00078
F00078
F00078
F800F8
7800F0
7C01F0
7E03F0
3FDFE0
1FFFC0
0FFF80
03FE00
ENDCHAR
STARTCHAR 0151
ENCODING 337
SWIDTH 792 0
DWIDTH 22 0
BBX 21 25 1 0
BITMAP
00E700
00CE00
01CC00
019C00
000000
00F800
07FF00
0FFF80
1FFFC0
3F07E0
7C01F0
7800F0
F800F8
F00078
F00078
F00078
F00078
F800F8
7800F0
7C01F0
7E03F0
3FDFE0
1FFFC0
0FFF80
03FE00
ENDCHAR
STARTCHAR 0154
ENCODING 340
SWIDTH 612 0
DWIDTH 17 0
BBX 15 25 1 0
BITMAP
00E0
01C0
01C0
0180
0000
0000
7FF8
7FFC
7FFE
7C7E
7C1E
7C1E
7C1E
7C3E
FFFE
FFFC
FFF8
FFFC
7C3C
7C3E
7C3E
7C3E
7C3E
7C3E
7C3E
ENDCHAR
STARTCHAR 0155
ENCODING 341
SWIDTH 612 0
DWIDTH 17 0
BBX 15 25 1 0
BITMAP
00E0
01C0
01C0
0180
0000
0000
7FF8
7FFC
7FFE
7C7E
7C1E
7C1E
7C1E
7C3E
FFFE
FFFC
FFF8
FFFC
7C3C
7C3E
7C3E
7C3E
7C3E
7C3E
7C3E
ENDCHAR
STARTCHAR 0158
ENCODING 344
SWIDTH 612 0
DWIDTH 17 0
BBX 15 25 1 0
BITMAP
0FE0
07C0
0380
0100
0000
0000
7FF8
7FFC
7FFE
7C7E
7C1E
7C1E
7C1E
7C3E
FFFE
FFFC
FFF8
FFFC
7C3C
7C3E
7C3E
7C3E
7C3E
7C3E
7C3E
ENDCHAR
STARTCHAR 0159
ENCODING 345
SWIDTH 612 0
DWIDTH 17 0
BBX 15 25 1 0
BITMAP
0FE0
07C0
0380
0100
0000
0000
7FF8
7FFC
7FFE
7C7E
7C1E
7C1E
7C1E
7C3E
FFFE
FFFC
FFF8
FFFC
7C3C
7C3E
7C3E
7C3E
7C3E
7C3E
7C3E
ENDCHAR
STARTCHAR 015A
ENCODING 346
SWIDTH 504 0
DWIDTH 14 0
BBX 13 25 1 0
BITMAP
0380
0380
0300
0600
0000
0F80
3FC0
7FE0
7FF0
79F0
F8E0
7800
7C00
3F00
3F80
0FE0
07F0
01F0
00F8
30F8
F0F8
FFF0
7FF0
3FE0
1FC0
ENDCHAR
STARTCHAR 015B
ENCODING 347
SWIDTH 504 0
DWIDTH 14 0
BBX 13 25 1 0
BITMAP
0380
0380
0300
0600
0000
0F80
3FC0
7FE0
7FF0
79F0
F8E0
7800
7C00
3F00
3F80
0FE0
07F0
01F0
00F8
30F8
F0F8
FFF0
7FF0
3FE0
1FC0
ENDCHAR
STARTCHAR 015E
ENCODING 350
SWIDTH 504 0
DWIDTH 14 0
BBX 13 26 1 -6
BITMAP
0F80
3FC0
7FE0
7FF0
79F0
F8E0
7800
7C00
3F00
3F80
0FE0
07F0
01F0
00F8
30F8
F0F8
FFF0
7FF0
3FE0
1FC0
0600
0700
0380
1180
3F80
1F00
ENDCHAR
STARTCHAR 015F
ENCODING 351
SWIDTH 504 0
DWIDTH 14 0
BBX 13 26 1 -6
BITMAP
0F80
3FC0
7FE0
7FF0
79F0
F8E0
7800
7C00
3F00
3F80
0FE0
07F0
01F0
00F8
30F8
F0F8
FFF0
7FF0
3FE0
1FC0
0600
0700
0380
1180
3F80
1F00
ENDCHAR
STARTCHAR 0160
ENCODING 352
SWIDTH 504 0
DWIDTH 14 0
BBX 13 25 1 0
BITMAP
1F80
0F80
0700
0200
0000
0F80
3FC0
7FE0
7FF0
79F0
F8E0
7800
7C00
3F00
3F80
0FE0
07F0
01F0
00F8
30F8
F0F8
FFF0
7FF0
3FE0
1FC0
ENDCHAR
STARTCHAR 0161
ENCODING 353
SWIDTH 504 0
DWIDTH 14 0
BBX 13 25 1 0
BITMAP
1F80
0F80
0700
0200
0000
0F80
3FC0
7FE0
7FF0
79F0
F8E0
7800
7C00
3F00
3F80
0FE0
07F0
01F0
00F8
30F8
F0F8
FFF0
7FF0
3FE0
1FC0
ENDCHAR
STARTCHAR 0162
ENCODING 354
SWIDTH 504 0
DWIDTH 14 0
BBX 13 25 1 -6
BITMAP
FFF8
FFF8
FFF8
0F00
0F00
0F00
0F00
0F00
0F00
0F00
0F00
0F00
0F00
0F00
0F00
0F00
0F00
0F00
0F00
0600
0700
0300
1380
3F00
1F00
ENDCHAR
STARTCHAR 0163
ENCODING 355
SWIDTH 504 0
DWIDTH 14 0
BBX 13 25 1 -6
BITMAP
FFF8
FFF8
FFF8
0F00
0F00
0F00
0F00
0F00
0F00
0F00
0F00
0F00
0F00
0F00
0F00
0F00
0F00
0F00
0F00
0600
0700
0300
1380
3F00
1F00
ENDCHAR
STARTCHAR 0164
ENCODING 356
SWIDTH 504 0
DWIDTH 14 0
BBX 13 25 1 0
BITMAP
1FC0
0F80
0700
0200
0000
0000
FFF8
FFF8
FFF8
0F00
0F00
0F00
0F00
0F00
0F00
0F00
0F00
0F00
0F00
0F00
0F00
0F00
0F00
0F00
0F00
ENDCHAR
STARTCHAR 0165
ENCODING 357
SWIDTH 504 0
DWIDTH 14 0
BBX 13 25 1 0
BITMAP
1FC0
0F80
0700
0200
0000
0000
FFF8
FFF8
FFF8
0F00
0F00
0F00
0F00
0F00
0F00
0F00
0F00
0F00
0F00
0F00
0F00
0F00
0F00
0F00
0F00
ENDCHAR
STARTCHAR 0168
ENCODING 360
SWIDTH 540 0
DWIDTH 15 0
BBX 13 25 1 0
BITMAP
1E40
1FC0
1FC0
0000
0000
0000
F078
F078
F078
F078
F078
F078
F078
F078
F078
F078
F078
F078
F078
F878
F8F8
7DF0
7FF0
3FE0
1FC0
ENDCHAR
STARTCHAR 0169
ENCODING 361
SWIDTH 540 0
DWIDTH 15 0
BBX 13 25 1 0
BITMAP
1E40
1FC0
1FC0
0000
0000
0000
F078
F078
F078
F078
F078
F078
F078
F078
F078
F078
F078
F078
F078
F878
F8F8
7DF0
7FF0
3FE0
1FC0
ENDCHAR
STARTCHAR 016A
ENCODING 362
SWIDTH 540 0
DWIDTH 15 0
BBX 13 25 1 0
BITMAP
1FE0
1FE0
1FE0
1FE0
0000
0000
F078
F078
F078
F078
F078
F078
F078
F078
F078
F078
F078
F078
F078
F878
F8F8
7DF0
7FF0
3FE0
1FC0
ENDCHAR
STARTCHAR 016B
ENCODING 363
SWIDTH 540 0
DWIDTH 15 0
BBX 13 25 1 0
BITMAP
1FE0
1FE0
1FE0
1FE0
0000
0000
F078
F078
F078
F078
F078
F078
F078
F078
F078
F078
F078
F078
F078
F878
F8F8
7DF0
7FF0
3FE0
1FC0
ENDCHAR
STARTCHAR 016E
ENCODING 366
SWIDTH 540 0
DWIDTH 15 0
BBX 13 27 1 0
BITMAP
0700
0F80
0D80
0880
0F80
0700
0000
0000
F078
F078
F078
F078
F078
F078
F078
F078
F078
F078
F078
F078
F078
F878
F8F8
7DF0
7FF0
3FE0
1FC0
ENDCHAR
STARTCHAR 016F
ENCODING 367
SWIDTH 540 0
DWIDTH 15 0
BBX 13 27 1 0
BITMAP
0700
0F80
0D80
0880
0F80
0700
0000
0000
F078
F078
F078
F078
F078
F078
F078
F078
F078
F078
F078
F078
F078
F878
F8F8
7DF0
7FF0
3FE0
1FC0
ENDCHAR
STARTCHAR 0170
ENCODING 368
SWIDTH 540 0
DWIDTH 15 0
BBX 13 25 1 0
BITMAP
0E70
0CE0
1CC0
19C0
0000
0000
F078
F078
F078
F078
F078
F078
F078
F078
F078
F078
F078
F078
F078
F878
F8F8
7DF0
7FF0
3FE0
1FC0
ENDCHAR
STARTCHAR 0171
ENCODING 369
SWIDTH 540 0
DWIDTH 15 0
BBX 13 25 1 0
BITMAP
0E70
0CE0
1CC0
19C0
0000
0000
F078
F078
F078
F078
F078
F078
F078
F078
F078
F078
F078
F078
F078
F878
F8F8
7DF0
7FF0
3FE0
1FC0
ENDCHAR
STARTCHAR 0172
ENCODING 370
SWIDTH 540 0
DWIDTH 15 0
BBX 13 24 1 -6
BITMAP
F078
F078
F078
F078
F078
F078
F078
F078
F078
F078
F078
F078
F078
F878
F8F8
7DF0
7FF0
3FE0
1FC0
0600
0C00
0C00
0FC0
0FC0
ENDCHAR
STARTCHAR 0173
ENCODING 371
SWIDTH 540 0
DWIDTH 15 0
BBX 13 24 1 -6
BITMAP
F078
F078
F078
F078
F078
F078
F078
F078
F078
F078
F078
F078
F078
F878
F8F8
7DF0
7FF0
3FE0
1FC0
0600
0C00
0C00
0FC0
0FC0
ENDCHAR
STARTCHAR 0176
ENCODING 374
SWIDTH 504 0
DWIDTH 14 0
BBX 13 25 1 0
BITMAP
0200
0700
0F80
1FC0
0000
0000
F078
F078
F078
F078
F078
F078
F078
F078
F078
F8F8
79F0
7FF0
3FE0
1FC0
0F80
0F80
0F80
0F80
0F80
ENDCHAR
STARTCHAR 0177
ENCODING 375
SWIDTH 504 0
DWIDTH 14 0
BBX 13 25 1 0
BITMAP
0200
0700
0F80
1FC0
0000
0000
F078
F078
F078
F078
F078
F078
F078
F078
F078
F8F8
79F0
7FF0
3FE0
1FC0
0F80
0F80
0F80
0F80
0F80
ENDCHAR
STARTCHAR 0178
ENCODING 376
SWIDTH 504 0
DWIDTH 14 0
BBX 13 25 1 0
BITMAP
78F0
7CF0
78F0
78F0
0000
0000
F078
F078
F078
F078
F078
F078
F078
F078
F078
F8F8
79F0
7FF0
3FE0
1FC0
0F80
0F80
0F80
0F80
0F80
ENDCHAR
STARTCHAR 0179
ENCODING 377
SWIDTH 540 0
DWIDTH 15 0
BBX 13 25 1 0
BITMAP
01C0
0380
0300
0700
0000
0000
FFF8
FFF8
FFF8
00F0
01E0
03E0
03C0
07C0
0780
0F80
1F00
1E00
3E00
3C00
7C00
FFF8
FFF8
FFF8
FFF8
ENDCHAR
STARTCHAR 017A
ENCODING 378
SWIDTH 540 0
DWIDTH 15 0
BBX 13 25 1 0
BITMAP
01C0
0380
0300
0700
0000
0000
FFF8
FFF8
FFF8
00F0
01E0
03E0
03C0
07C0
0780
0F80
1F00
1E00
3E00
3C00
7C00
FFF8
FFF8
FFF8
FFF8
ENDCHAR
STARTCHAR 017B
ENCODING 379
SWIDTH 540 0
DWIDTH 15 0
BBX 13 26 1 0
BITMAP
0700
0F80
0F80
0780
0700
0000
0000
FFF8
FFF8
FFF8
00F0
01E0
03E0
03C0
07C0
0780
0F80
1F00
1E00
3E00
3C00
7C00
FFF8
FFF8
FFF8
FFF8
ENDCHAR
STARTCHAR 017C
ENCODING 380
SWIDTH 540 0
DWIDTH 15 0
BBX 13 26 1 0
BITMAP
0700
0F80
0F80
0780
0700
0000
0000
FFF8
FFF8
FFF8
00F0
01E0
03E0
03C0
07C0
0780
0F80
1F00
1E00
3E00
3C00
7C00
FFF8
FFF8
FFF8
FFF8
ENDCHAR
STARTCHAR 017D
ENCODING 381
SWIDTH 540 0
DWIDTH 15 0
BBX 13 25 1 0
BITMAP
1FC0
0F80
0700
0200
0000
0000
FFF8
FFF8
FFF8
00F0
01E0
03E0
03C0
07C0
0780
0F80
1F00
1E00
3E00
3C00
7C00
FFF8
FFF8
FFF8
FFF8
ENDCHAR
STARTCHAR 017E
ENCODING 382
SWIDTH 540 0
DWIDTH 15 0
BBX 13 25 1 0
BITMAP
1FC0
0F80
0700
0200
0000
0000
FFF8
FFF8
FFF8
00F0
01E0
03E0
03C0
07C0
0780
0F80
1F00
1E00
3E00
3C00
7C00
FFF8
FFF8
FFF8
FFF8
ENDCHAR
STARTCHAR 01A0
ENCODING 416
SWIDTH 792 0
DWIDTH 22 0
BBX 21 22 1 0
BITMAP
000070
000070
00F870
07FF60
0FFF80
1FFFC0
3F07E0
7C01F0
7800F0
F800F8
F00078
F00078
F00078
F00078
F800F8
7800F0
7C01F0
7E03F0
3FDFE0
1FFFC0
0FFF80
03FE00
ENDCHAR
STARTCHAR 01A1
ENCODING 417
SWIDTH 792 0
DWIDTH 22 0
BBX 21 22 1 0
BITMAP
000070
000070
00F870
07FF60
0FFF80
1FFFC0
3F07E0
7C01F0
7800F0
F800F8
F00078
F00078
F00078
F00078
F800F8
7800F0
7C01F0
7E03F0
3FDFE0
1FFFC0
0FFF80
03FE00
ENDCHAR
STARTCHAR 01AF
ENCODING 431
SWIDTH 540 0
DWIDTH 15 0
BBX 16 22 1 0
BITMAP
0007
0007
0007
F07F
F078
F078
F078
F078
F078
F078
F078
F078
F078
F078
F078
F078
F878
F8F8
7DF0
7FF0
3FE0
1FC0
ENDCHAR
STARTCHAR 01B0
ENCODING 432
SWIDTH 540 0
DWIDTH 15 0
BBX 16 22 1 0
BITMAP
0007
0007
0007
F07F
F078
F078
F078
F078
F078
F078
F078
F078
F078
F078
F078
F078
F878
F8F8
7DF0
7FF0
3FE0
1FC0
ENDCHAR
STARTCHAR 01CD
ENCODING 461
SWIDTH 576 0
DWIDTH 16 0
BBX 15 25 1 0
BITMAP
1FC0
0F80
0700
0200
0000
0780
1FE0
3FF0
7FF0
78F8
F878
F878
F878
F878
F878
F878
F878
F878
F878
F878
F878
FFFE
FFFE
FFFE
FFFE
ENDCHAR
STARTCHAR 01CE
ENCODING 462
SWIDTH 576 0
DWIDTH 16 0
BBX 15 25 1 0
BITMAP
1FC0
0F80
0700
0200
0000
0780
1FE0
3FF0
7FF0
78F8
F878
F878
F878
F878
F878
F878
F878
F878
F878
F878
F878
FFFE
FFFE
FFFE
FFFE
ENDCHAR
STARTCHAR 01CF
ENCODING 463
SWIDTH 252 0
DWIDTH 7 0
BBX 6 17 1 0
BITMAP
FC
78
30
20
00
78
78
78
78
78
78
78
78
78
78
78
78
ENDCHAR
STARTCHAR 01D0
ENCODING 464
SWIDTH 252 0
DWIDTH 7 0
BBX 6 17 1 0
BITMAP
FC
78
30
20
00
78
78
78
78
78
78
78
78
78
78
78
78
ENDCHAR
STARTCHAR 01D1
ENCODING 465
SWIDTH 792 0
DWIDTH 22 0
BBX 21 25 1 0
BITMAP
01FC00
00F800
007000
002000
000000
00F800
07FF00
0FFF80
1FFFC0
3F07E0
7C01F0
7800F0
F800F8
F00078
F00078
F00078
F00078
F800F8
7800F0
7C01F0
7E03F0
3FDFE0
1FFFC0
0FFF80
03FE00
ENDCHAR
STARTCHAR 01D2
ENCODING 466
SWIDTH 792 0
DWIDTH 22 0
BBX 21 25 1 0
BITMAP
01FC00
00F800
007000
002000
000000
00F800
07FF00
0FFF80
1FFFC0
3F07E0
7C01F0
7800F0
F800F8
F00078
F00078
F00078
F00078
F800F8
7800F0
7C01F0
7E03F0
3FDFE0
1FFFC0
0FFF80
03FE00
ENDCHAR
STARTCHAR 01D3
ENCODING 467
SWIDTH 540 0
DWIDTH 15 0
BBX 13 25 1 0
BITMAP
1FC0
0F80
0700
0200
0000
0000
F078
F078
F078
F078
F078
F078
F078
F078
F078
F078
F078
F078
F078
F878
F8F8
7DF0
7FF0
3FE0
1FC0
ENDCHAR
STARTCHAR 01D4
ENCODING 468
SWIDTH 540 0
DWIDTH 15 0
BBX 13 25 1 0
BITMAP
1FC0
0F80
0700
0200
0000
0000
F078
F078
F078
F078
F078
F078
F078
F078
F078
F078
F078
F078
F078
F878
F8F8
7DF0
7FF0
3FE0
1FC0
ENDCHAR
STARTCHAR 02C6
ENCODING 710
SWIDTH 324 0
DWIDTH 9 0
BBX 7 4 0 21
BITMAP
10
38
7C
FE
ENDCHAR
STARTCHAR 02C7
ENCODING 711
SWIDTH 216 0
DWIDTH 6 0
BBX 7 4 0 21
BITMAP
FE
7C
38
10
ENDCHAR
STARTCHAR 02D8
ENCODING 728
SWIDTH 288 0
DWIDTH 8 0
BBX 6 3 0 21
BITMAP
FC
7C
30
ENDCHAR
STARTCHAR 02D9
ENCODING 729
SWIDTH 144 0
DWIDTH 4 0
BBX 5 5 0 21
BITMAP
70
F8
F8
F8
70
ENDCHAR
STARTCHAR 02DA
ENCODING 730
SWIDTH 180 0
DWIDTH 5 0
BBX 6 6 0 21
BITMAP
30
F8
CC
CC
F8
78
ENDCHAR
STARTCHAR 02DB
ENCODING 731
SWIDTH 216 0
DWIDTH 6 0
BBX 6 6 0 -6
BITMAP
70
E0
C0
EC
7C
30
ENDCHAR
STARTCHAR 02DC
ENCODING 732
SWIDTH 216 0
DWIDTH 6 0
BBX 7 3 0 22
BITMAP
F2
FE
FE
ENDCHAR
STARTCHAR 02DD
ENCODING 733
SWIDTH 324 0
DWIDTH 9 0
BBX 9 4 0 21
BITMAP
7380
7300
E700
C600
ENDCHAR
STARTCHAR 0300
ENCODING 768
SWIDTH 0 0
DWIDTH 0 0
BBX 4 4 -4 21
BITMAP
E0
E0
70
30
ENDCHAR
STARTCHAR 0301
ENCODING 769
SWIDTH 0 0
DWIDTH 0 0
BBX 5 4 -5 21
BITMAP
38
70
60
E0
ENDCHAR
STARTCHAR 0302
ENCODING 770
SWIDTH 0 0
DWIDTH 0 0
BBX 7 4 -7 21
BITMAP
10
38
7C
FE
ENDCHAR
STARTCHAR 0303
ENCODING 771
SWIDTH 0 0
DWIDTH 0 0
BBX 7 3 -7 22
BITMAP
F2
FE
FE
ENDCHAR
STARTCHAR 0304
ENCODING 772
SWIDTH 0 0
DWIDTH 0 0
BBX 8 4 -8 21
BITMAP
FF
FF
FF
FF
ENDCHAR
STARTCHAR 0306
ENCODING 774
SWIDTH 0 0
DWIDTH 0 0
BBX 6 3 -6 21
BITMAP
FC
F8
70
ENDCHAR
STARTCHAR 0307
ENCODING 775
SWIDTH 0 0
DWIDTH 0 0
BBX 5 5 -5 21
BITMAP
70
F8
F8
78
30
ENDCHAR
STARTCHAR 0308
ENCODING 776
SWIDTH 0 0
DWIDTH 0 0
BBX 12 4 -12 21
BITMAP
78F0
F9F0
79F0
78F0
ENDCHAR
STARTCHAR 0309
ENCODING 777
SWIDTH 0 0
DWIDTH 0 0
BBX 3 5 -3 21
BITMAP
60
E0
E0
C0
E0
ENDCHAR
STARTCHAR 030A
ENCODING 778
SWIDTH 0 0
DWIDTH 0 0
BBX 6 6 -6 21
BITMAP
30
7C
CC
CC
7C
78
ENDCHAR
STARTCHAR 030B
ENCODING 779
SWIDTH 0 0
DWIDTH 0 0
BBX 9 4 -9 21
BITMAP
7380
6700
E600
CE00
ENDCHAR
STARTCHAR 030C
ENCODING 780
SWIDTH 0 0
DWIDTH 0 0
BBX 7 4 -7 21
BITMAP
FE
7C
38
10
ENDCHAR
STARTCHAR 031B
ENCODING 795
SWIDTH 0 0
DWIDTH 0 0
BBX 3 4 -3 18
BITMAP
E0
E0
C0
C0
ENDCHAR
STARTCHAR 0323
ENCODING 803
SWIDTH 0 0
DWIDTH 0 0
BBX 5 5 -5 -8
BITMAP
70
F8
F8
78
30
ENDCHAR
STARTCHAR 0326
ENCODING 806
SWIDTH 0 0
DWIDTH 0 0
BBX 5 4 -5 -6
BITMAP
38
70
70
E0
ENDCHAR
STARTCHAR 0327
ENCODING 807
SWIDTH 0 0
DWIDTH 0 0
BBX 6 6 -6 -6
BITMAP
18
38
0C
4C
FC
78
ENDCHAR
STARTCHAR 0328
ENCODING 808
SWIDTH 0 0
DWIDTH 0 0
BBX 7 6 -7 -6
BITMAP
78
60
E0
EC
7E
18
ENDCHAR
STARTCHAR 0335
ENCODING 821
SWIDTH 0 0
DWIDTH 0 0
BBX 10 3 -10 4
BITMAP
FFC0
FFC0
FFC0
ENDCHAR
STARTCHAR 1EA0
ENCODING 7840
SWIDTH 576 0
DWIDTH 16 0
BBX 15 28 1 -8
BITMAP
0780
1FE0
3FF0
7FF0
78F8
F878
F878
F878
F878
F878
F878
F878
F878
F878
F878
F878
FFFE
FFFE
FFFE
FFFE
0000
0000
0000
0700
0F80
0F80
0780
0300
ENDCHAR
STARTCHAR 1EA1
ENCODING 7841
SWIDTH 576 0
DWIDTH 16 0
BBX 15 28 1 -8
BITMAP
0780
1FE0
3FF0
7FF0
78F8
F878
F878
F878
F878
F878
F878
F878
F878
F878
F878
F878
FFFE
FFFE
FFFE
FFFE
0000
0000
0000
0700
0F80
0F80
0780
0300
ENDCHAR
STARTCHAR 1EA2
ENCODING 7842
SWIDTH 576 0
DWIDTH 16 0
BBX 15 26 1 0
BITMAP
0300
0300
0700
0600
0700
0000
0780
1FE0
3FF0
7FF0
78F8
F878
F878
F878
F878
F878
F878
F878
F878
F878
F878
F878
FFFE
FFFE
FFFE
FFFE
ENDCHAR
STARTCHAR 1EA3
ENCODING 7843
SWIDTH 576 0
DWIDTH 16 0
BBX 15 26 1 0
BITMAP
0300
0300
0700
0600
0700
0000
0780
1FE0
3FF0
7FF0
78F8
F878
F878
F878
F878
F878
F878
F878
F878
F878
F878
F878
FFFE
FFFE
FFFE
FFFE
ENDCHAR
STARTCHAR 1EA4
ENCODING 7844
SWIDTH 576 0
DWIDTH 16 0
BBX 15 27 1 0
BITMAP
001C
0038
0238
0730
0F80
1FC0
0000
0780
1FE0
3FF0
7FF0
78F8
F878
F878
F878
F878
F878
F878
F878
F878
F878
F878
F878
FFFE
FFFE
FFFE
FFFE
ENDCHAR
STARTCHAR 1EA5
ENCODING 7845
SWIDTH 576 0
DWIDTH 16 0
BBX 15 27 1 0
BITMAP
001C
0038
0238
0730
0F80
1FC0
0000
0780
1FE0
3FF0
7FF0
78F8
F878
F878
F878
F878
F878
F878
F878
F878
F878
F878
F878
FFFE
FFFE
FFFE
FFFE
ENDCHAR
STARTCHAR 1EA6
ENCODING 7846
SWIDTH 576 0
DWIDTH 16 0
BBX 15 27 1 0
BITMAP
C000
E000
6200
7700
0F80
1FC0
0000
0780
1FE0
3FF0
7FF0
78F8
F878
F878
F878
F878
F878
F878
F878
F878
F878
F878
F878
FFFE
FFFE
FFFE
FFFE
ENDCHAR
STARTCHAR 1EA7
ENCODING 7847
SWIDTH 576 0
DWIDTH 16 0
BBX 15 27 1 0
BITMAP
C000
E000
6200
7700
0F80
1FC0
0000
0780
1FE0
3FF0
7FF0
78F8
F878
F878
F878
F878
F878
F878
F878
F878
F878
F878
F878
FFFE
FFFE
FFFE
FFFE
ENDCHAR
STARTCHAR 1EA8
ENCODING 7848
SWIDTH 576 0
DWIDTH 16 0
BBX 15 29 1 0
BITMAP
0030
0038
0030
0070
0270
0730
0F80
1FC0
0000
0780
1FE0
3FF0
7FF0
78F8
F878
F878
F878
F878
F878
F878
F878
F878
F878
F878
F878
FFFE
FFFE
FFFE
FFFE
ENDCHAR
STARTCHAR 1EA9
ENCODING 7849
SWIDTH 576 0
DWIDTH 16 0
BBX 15 29 1 0
BITMAP
0030
0038
0030
0070
0270
0730
0F80
1FC0
0000
0780
1FE0
3FF0
7FF0
78F8
F878
F878
F878
F878
F878
F878
F878
F878
F878
F878
F878
FFFE
FFFE
FFFE
FFFE
ENDCHAR
STARTCHAR 1EAA
ENCODING 7850
SWIDTH 576 0
DWIDTH 16 0
BBX 16 27 1 0
BITMAP
0078
007F
027F
0700
0F80
1FC0
0000
0780
1FE0
3FF0
7FF0
78F8
F878
F878
F878
F878
F878
F878
F878
F878
F878
F878
F878
FFFE
FFFE
FFFE
FFFE
ENDCHAR
STARTCHAR 1EAB
ENCODING 7851
SWIDTH 576 0
DWIDTH 16 0
BBX 16 27 1 0
BITMAP
0078
007F
027F
0700
0F80
1FC0
0000
0780
1FE0
3FF0
7FF0
78F8
F878
F878
F878
F878
F878
F878
F878
F878
F878
F878
F878
FFFE
FFFE
FFFE
FFFE
ENDCHAR
STARTCHAR 1EAC
ENCODING 7852
SWIDTH 576 0
DWIDTH 16 0
BBX 15 33 1 -8
BITMAP
0200
0700
0F80
1FC0
0000
0780
1FE0
3FF0
7FF0
78F8
F878
F878
F878
F878
F878
F878
F878
F878
F878
F878
F878
FFFE
FFFE
FFFE
FFFE
0000
0000
0000
0700
0F80
0F80
0780
0300
ENDCHAR
STARTCHAR 1EAD
ENCODING 7853
SWIDTH 576 0
DWIDTH 16 0
BBX 15 33 1 -8
BITMAP
0200
0700
0F80
1FC0
0000
0780
1FE0
3FF0
7FF0
78F8
F878
F878
F878
F878
F878
F878
F878
F878
F878
F878
F878
FFFE
FFFE
FFFE
FFFE
0000
0000
0000
0700
0F80
0F80
0780
0300
ENDCHAR
STARTCHAR 1EAE
ENCODING 7854
SWIDTH 576 0
DWIDTH 16 0
BBX 15 27 1 0
BITMAP
000E
001C
001C
0FD8
0F80
0700
0000
0780
1FE0
3FF0
7FF0
78F8
F878
F878
F878
F878
F878
F878
F878
F878
F878
F878
F878
FFFE
FFFE
FFFE
FFFE
ENDCHAR
STARTCHAR 1EAF
ENCODING 7855
SWIDTH 576 0
DWIDTH 16 0
BBX 15 27 1 0
BITMAP
000E
001C
001C
0FD8
0F80
0700
0000
0780
1FE0
3FF0
7FF0
78F8
F878
F878
F878
F878
F878
F878
F878
F878
F878
F878
F878
FFFE
FFFE
FFFE
FFFE
ENDCHAR
STARTCHAR 1EB0
ENCODING 7856
SWIDTH 576 0
DWIDTH 16 0
BBX 16 27 0 0
BITMAP
E000
E000
7000
37E0
07C0
0380
0000
03C0
0FF0
1FF8
3FF8
3C7C
7C3C
7C3C
7C3C
7C3C
7C3C
7C3C
7C3C
7C3C
7C3C
7C3C
7C3C
7FFF
7FFF
7FFF
7FFF
ENDCHAR
STARTCHAR 1EB1
ENCODING 7857
SWIDTH 576 0
DWIDTH 16 0
BBX 16 27 0 0
BITMAP
E000
E000
7000
37E0
07C0
0380
0000
03C0
0FF0
1FF8
3FF8
3C7C
7C3C
7C3C
7C3C
7C3C
7C3C
7C3C
7C3C
7C3C
7C3C
7C3C
7C3C
7FFF
7FFF
7FFF
7FFF
ENDCHAR
STARTCHAR 1EB2
ENCODING 7858
SWIDTH 576 0
DWIDTH 16 0
BBX 15 28 1 0
BITMAP
001C
001C
0018
0018
0FD8
0F98
0700
0000
0780
1FE0
3FF0
7FF0
78F8
F878
F878
F878
F878
F878
F878
F878
F878
F878
F878
F878
FFFE
FFFE
FFFE
FFFE
ENDCHAR
STARTCHAR 1EB3
ENCODING 7859
SWIDTH 576 0
DWIDTH 16 0
BBX 15 28 1 0
BITMAP
001C
001C
0018
0018
0FD8
0F98
0700
0000
0780
1FE0
3FF0
7FF0
78F8
F878
F878
F878
F878
F878
F878
F878
F878
F878
F878
F878
FFFE
FFFE
FFFE
FFFE
ENDCHAR
STARTCHAR 1EB4
ENCODING 7860
SWIDTH 576 0
DWIDTH 16 0
BBX 15 28 1 0
BITMAP
03F8
03F8
02F8
0000
0FC0
0F80
0700
0000
0780
1FE0
3FF0
7FF0
78F8
F878
F878
F878
F878
F878
F878
F878
F878
F878
F878
F878
FFFE
FFFE
FFFE
FFFE
ENDCHAR
STARTCHAR 1EB5
ENCODING 7861
SWIDTH 576 0
DWIDTH 16 0
BBX 15 28 1 0
BITMAP
03F8
03F8
02F8
0000
0FC0
0F80
0700
0000
0780
1FE0
3FF0
7FF0
78F8
F878
F878
F878
F878
F878
F878
F878
F878
F878
F878
F878
FFFE
FFFE
FFFE
FFFE
ENDCHAR
STARTCHAR 1EB6
ENCODING 7862
SWIDTH 576 0
DWIDTH 16 0
BBX 15 32 1 -8
BITMAP
0FC0
0F80
0700
0000
0780
1FE0
3FF0
7FF0
78F8
F878
F878
F878
F878
F878
F878
F878
F878
F878
F878
F878
FFFE
FFFE
FFFE
FFFE
0000
0000
0000
0700
0F80
0F80
0780
0300
ENDCHAR
STARTCHAR 1EB7
ENCODING 7863
SWIDTH 576 0
DWIDTH 16 0
BBX 15 32 1 -8
BITMAP
0FC0
0F80
0700
0000
0780
1FE0
3FF0
7FF0
78F8
F878
F878
F878
F878
F878
F878
F878
F878
F878
F878
F878
FFFE
FFFE
FFFE
FFFE
0000
0000
0000
0700
0F80
0F80
0780
0300
ENDCHAR
STARTCHAR 1EB8
ENCODING 7864
SWIDTH 504 0
DWIDTH 14 0
BBX 13 27 1 -8
BITMAP
7FC0
7FC0
7FC0
7C00
7C00
7C00
7C00
FFE0
FFE0
FFE0
FFE0
7C00
7C00
7C00
7C00
7FF8
7FF8
7FF8
7FF8
0000
0000
0000
0380
07C0
07C0
07C0
0100
ENDCHAR
STARTCHAR 1EB9
ENCODING 7865
SWIDTH 504 0
DWIDTH 14 0
BBX 13 27 1 -8
BITMAP
7FC0
7FC0
7FC0
7C00
7C00
7C00
7C00
FFE0
FFE0
FFE0
FFE0
7C00
7C00
7C00
7C00
7FF8
7FF8
7FF8
7FF8
0000
0000
0000
0380
07C0
07C0
07C0
0100
ENDCHAR
STARTCHAR 1EBA
ENCODING 7866
SWIDTH 504 0
DWIDTH 14 0
BBX 13 26 1 0
BITMAP
0600
0600
0E00
0C00
0E00
0000
0000
7FC0
7FC0
7FC0
7C00
7C00
7C00
7C00
FFE0
FFE0
FFE0
FFE0
7C00
7C00
7C00
7C00
7FF8
7FF8
7FF8
7FF8
ENDCHAR
STARTCHAR 1EBB
ENCODING 7867
SWIDTH 504 0
DWIDTH 14 0
BBX 13 26 1 0
BITMAP
0600
0600
0E00
0C00
0E00
0000
0000
7FC0
7FC0
7FC0
7C00
7C00
7C00
7C00
FFE0
FFE0
FFE0
FFE0
7C00
7C00
7C00
7C00
7FF8
7FF8
7FF8
7FF8
ENDCHAR
STARTCHAR 1EBC
ENCODING 7868
SWIDTH 504 0
DWIDTH 14 0
BBX 13 25 1 0
BITMAP
3C80
3F80
3F80
0000
0000
0000
7FC0
7FC0
7FC0
7C00
7C00
7C00
7C00
FFE0
FFE0
FFE0
FFE0
7C00
7C00
7C00
7C00
7FF8
7FF8
7FF8
7FF8
ENDCHAR
STARTCHAR 1EBD
ENCODING 7869
SWIDTH 504 0
DWIDTH 14 0
BBX 13 25 1 0
BITMAP
3C80
3F80
3F80
0000
0000
0000
7FC0
7FC0
7FC0
7C00
7C00
7C00
7C00
FFE0
FFE0
FFE0
FFE0
7C00
7C00
7C00
7C00
7FF8
7FF8
7FF8
7FF8
ENDCHAR
STARTCHAR 1EBE
ENCODING 7870
SWIDTH 504 0
DWIDTH 14 0
BBX 13 27 1 0
BITMAP
0038
0070
0460
0E60
1F00
3F80
0000
0000
7FC0
7FC0
7FC0
7C00
7C00
7C00
7C00
FFE0
FFE0
FFE0
FFE0
7C00
7C00
7C00
7C00
7FF8
7FF8
7FF8
7FF8
ENDCHAR
STARTCHAR 1EBF
ENCODING 7871
SWIDTH 504 0
DWIDTH 14 0
BBX 13 27 1 0
BITMAP
0038
0070
0460
0E60
1F00
3F80
0000
0000
7FC0
7FC0
7FC0
7C00
7C00
7C00
7C00
FFE0
FFE0
FFE0
FFE0
7C00
7C00
7C00
7C00
7FF8
7FF8
7FF8
7FF8
ENDCHAR
STARTCHAR 1EC0
ENCODING 7872
SWIDTH 504 0
DWIDTH 14 0
BBX 15 27 -1 0
BITMAP
E000
7000
3100
3B80
07C0
0FE0
0000
0000
1FF0
1FF0
1FF0
1F00
1F00
1F00
1F00
3FF8
3FF8
3FF8
3FF8
1F00
1F00
1F00
1F00
1FFE
1FFE
1FFE
1FFE
ENDCHAR
STARTCHAR 1EC1
ENCODING 7873
SWIDTH 504 0
DWIDTH 14 0
BBX 15 27 -1 0
BITMAP
E000
7000
3100
3B80
07C0
0FE0
0000
0000
1FF0
1FF0
1FF0
1F00
1F00
1F00
1F00
3FF8
3FF8
3FF8
3FF8
1F00
1F00
1F00
1F00
1FFE
1FFE
1FFE
1FFE
ENDCHAR
STARTCHAR 1EC2
ENCODING 7874
SWIDTH 504 0
DWIDTH 14 0
BBX 13 29 1 0
BITMAP
0060
0070
0060
00E0
04E0
0E60
1F00
3F80
0000
0000
7FC0
7FC0
7FC0
7C00
7C00
7C00
7C00
FFE0
FFE0
FFE0
FFE0
7C00
7C00
7C00
7C00
7FF8
7FF8
7FF8
7FF8
ENDCHAR
STARTCHAR 1EC3
ENCODING 7875
SWIDTH 504 0
DWIDTH 14 0
BBX 13 29 1 0
BITMAP
0060
0070
0060
00E0
04E0
0E60
1F00
3F80
0000
0000
7FC0
7FC0
7FC0
7C00
7C00
7C00
7C00
FFE0
FFE0
FFE0
FFE0
7C00
7C00
7C00
7C00
7FF8
7FF8
7FF8
7FF8
ENDCHAR
STARTCHAR 1EC4
ENCODING 7876
SWIDTH 504 0
DWIDTH 14 0
BBX 15 27 1 0
BITMAP
00F0
00FE
04FE
0E00
1F00
3F80
0000
0000
7FC0
7FC0
7FC0
7C00
7C00
7C00
7C00
FFE0
FFE0
FFE0
FFE0
7C00
7C00
7C00
7C00
7FF8
7FF8
7FF8
7FF8
ENDCHAR
STARTCHAR 1EC5
ENCODING 7877
SWIDTH 504 0
DWIDTH 14 0
BBX 15 27 1 0
BITMAP
00F0
00FE
04FE
0E00
1F00
3F80
0000
0000
7FC0
7FC0
7FC0
7C00
7C00
7C00
7C00
FFE0
FFE0
FFE0
FFE0
7C00
7C00
7C00
7C00
7FF8
7FF8
7FF8
7FF8
ENDCHAR
STARTCHAR 1EC6
ENCODING 7878
SWIDTH 504 0
DWIDTH 14 0
BBX 13 33 1 -8
BITMAP
0400
0E00
1F00
3F80
0000
0000
7FC0
7FC0
7FC0
7C00
7C00
7C00
7C00
FFE0
FFE0
FFE0
FFE0
7C00
7C00
7C00
7C00
7FF8
7FF8
7FF8
7FF8
0000
0000
0000
0380
07C0
07C0
07C0
0100
ENDCHAR
STARTCHAR 1EC7
ENCODING 7879
SWIDTH 504 0
DWIDTH 14 0
BBX 13 33 1 -8
BITMAP
0400
0E00
1F00
3F80
0000
0000
7FC0
7FC0
7FC0
7C00
7C00
7C00
7C00
FFE0
FFE0
FFE0
FFE0
7C00
7C00
7C00
7C00
7FF8
7FF8
7FF8
7FF8
0000
0000
0000
0380
07C0
07C0
07C0
0100
ENDCHAR
STARTCHAR 1EC8
ENCODING 7880
SWIDTH 252 0
DWIDTH 7 0
BBX 4 19 2 0
BITMAP
60
60
E0
C0
E0
00
00
F0
F0
F0
F0
F0
F0
F0
F0
F0
F0
F0
F0
ENDCHAR
STARTCHAR 1EC9
ENCODING 7881
SWIDTH 252 0
DWIDTH 7 0
BBX 4 19 2 0
BITMAP
60
60
E0
C0
E0
00
00
F0
F0
F0
F0
F0
F0
F0
F0
F0
F0
F0
F0
ENDCHAR
STARTCHAR 1ECA
ENCODING 7882
SWIDTH 252 0
DWIDTH 7 0
BBX 7 31 0 -8
BITMAP
10
10
10
7C
FE
7C
7C
6C
00
00
00
7C
7C
7C
7C
7C
7C
7C
7C
7C
7C
7C
7C
00
00
00
38
7C
7C
7C
10
ENDCHAR
STARTCHAR 1ECB
ENCODING 7883
SWIDTH 252 0
DWIDTH 7 0
BBX 7 31 0 -8
BITMAP
10
10
10
7C
FE
7C
7C
6C
00
00
00
7C
7C
7C
7C
7C
7C
7C
7C
7C
7C
7C
7C
00
00
00
38
7C
7C
7C
10
ENDCHAR
STARTCHAR 1ECC
ENCODING 7884
SWIDTH 792 0
DWIDTH 22 0
BBX 21 28 1 -8
BITMAP
00F800
07FF00
0FFF80
1FFFC0
3F07E0
7C01F0
7800F0
F800F8
F00078
F00078
F00078
F00078
F800F8
7800F0
7C01F0
7E03F0
3FDFE0
1FFFC0
0FFF80
03FE00
000000
000000
000000
007000
00F800
00F800
00F800
002000
ENDCHAR
STARTCHAR 1ECD
ENCODING 7885
SWIDTH 792 0
DWIDTH 22 0
BBX 21 28 1 -8
BITMAP
00F800
07FF00
0FFF80
1FFFC0
3F07E0
7C01F0
7800F0
F800F8
F00078
F00078
F00078
F00078
F800F8
7800F0
7C01F0
7E03F0
3FDFE0
1FFFC0
0FFF80
03FE00
000000
000000
000000
007000
00F800
00F800
00F800
002000
ENDCHAR
STARTCHAR 1ECE
ENCODING 7886
SWIDTH 792 0
DWIDTH 22 0
BBX 21 26 1 0
BITMAP
003000
007000
007000
006000
007000
000000
00F800
07FF00
0FFF80
1FFFC0
3F07E0
7C01F0
7800F0
F800F8
F00078
F00078
F00078
F00078
F800F8
7800F0
7C01F0
7E03F0
3FDFE0
1FFFC0
0FFF80
03FE00
ENDCHAR
STARTCHAR 1ECF
ENCODING 7887
SWIDTH 792 0
DWIDTH 22 0
BBX 21 26 1 0
BITMAP
003000
007000
007000
006000
007000
000000
00F800
07FF00
0FFF80
1FFFC0
3F07E0
7C01F0
7800F0
F800F8
F00078
F00078
F00078
F00078
F800F8
7800F0
7C01F0
7E03F0
3FDFE0
1FFFC0
0FFF80
03FE00
ENDCHAR
STARTCHAR 1ED0
ENCODING 7888
SWIDTH 792 0
DWIDTH 22 0
BBX 21 27 1 0
BITMAP
0001C0
000380
002300
007700
00F800
01FC00
000000
00F800
07FF00
0FFF80
1FFFC0
3F07E0
7C01F0
7800F0
F800F8
F00078
F00078
F00078
F00078
F800F8
7800F0
7C01F0
7E03F0
3FDFE0
1FFFC0
0FFF80
03FE00
ENDCHAR
STARTCHAR 1ED1
ENCODING 7889
SWIDTH 792 0
DWIDTH 22 0
BBX 21 27 1 0
BITMAP
0001C0
000380
002300
007700
00F800
01FC00
000000
00F800
07FF00
0FFF80
1FFFC0
3F07E0
7C01F0
7800F0
F800F8
F00078
F00078
F00078
F00078
F800F8
7800F0
7C01F0
7E03F0
3FDFE0
1FFFC0
0FFF80
03FE00
ENDCHAR
STARTCHAR 1ED2
ENCODING 7890
SWIDTH 792 0
DWIDTH 22 0
BBX 21 27 1 0
BITMAP
1C0000
0E0000
062000
077000
00F800
01FC00
000000
00F800
07FF00
0FFF80
1FFFC0
3F07E0
7C01F0
7800F0
F800F8
F00078
F00078
F00078
F00078
F800F8
7800F0
7C01F0
7E03F0
3FDFE0
1FFFC0
0FFF80
03FE00
ENDCHAR
STARTCHAR 1ED3
ENCODING 7891
SWIDTH 792 0
DWIDTH 22 0
BBX 21 27 1 0
BITMAP
1C0000
0E0000
062000
077000
00F800
01FC00
000000
00F800
07FF00
0FFF80
1FFFC0
3F07E0
7C01F0
7800F0
F800F8
F00078
F00078
F00078
F00078
F800F8
7800F0
7C01F0
7E03F0
3FDFE0
1FFFC0
0FFF80
03FE00
ENDCHAR
STARTCHAR 1ED4
ENCODING 7892
SWIDTH 792 0
DWIDTH 22 0
BBX 21 29 1 0
BITMAP
000300
000300
000300
000700
002700
007300
00F800
01FC00
000000
00F800
07FF00
0FFF80
1FFFC0
3F07E0
7C01F0
7800F0
F800F8
F00078
F00078
F00078
F00078
F800F8
7800F0
7C01F0
7E03F0
3FDFE0
1FFFC0
0FFF80
03FE00
ENDCHAR
STARTCHAR 1ED5
ENCODING 7893
SWIDTH 792 0
DWIDTH 22 0
BBX 21 29 1 0
BITMAP
000300
000300
000300
000700
002700
007300
00F800
01FC00
000000
00F800
07FF00
0FFF80
1FFFC0
3F07E0
7C01F0
7800F0
F800F8
F00078
F00078
F00078
F00078
F800F8
7800F0
7C01F0
7E03F0
3FDFE0
1FFFC0
0FFF80
03FE00
ENDCHAR
STARTCHAR 1ED6
ENCODING 7894
SWIDTH 792 0
DWIDTH 22 0
BBX 21 27 1 0
BITMAP
000790
0007F0
0027F0
007000
00F800
01FC00
000000
00F800
07FF00
0FFF80
1FFFC0
3F07E0
7C01F0
7800F0
F800F8
F00078
F00078
F00078
F00078
F800F8
7800F0
7C01F0
7E03F0
3FDFE0
1FFFC0
0FFF80
03FE00
ENDCHAR
STARTCHAR 1ED7
ENCODING 7895
SWIDTH 792 0
DWIDTH 22 0
BBX 21 27 1 0
BITMAP
000790
0007F0
0027F0
007000
00F800
01FC00
000000
00F800
07FF00
0FFF80
1FFFC0
3F07E0
7C01F0
7800F0
F800F8
F00078
F00078
F00078
F00078
F800F8
7800F0
7C01F0
7E03F0
3FDFE0
1FFFC0
0FFF80
03FE00
ENDCHAR
STARTCHAR 1ED8
ENCODING 7896
SWIDTH 792 0
DWIDTH 22 0
BBX 21 33 1 -8
BITMAP
002000
007000
00F800
01FC00
000000
00F800
07FF00
0FFF80
1FFFC0
3F07E0
7C01F0
7800F0
F800F8
F00078
F00078
F00078
F00078
F800F8
7800F0
7C01F0
7E03F0
3FDFE0
1FFFC0
0FFF80
03FE00
000000
000000
000000
007000
00F800
00F800
00F800
002000
ENDCHAR
STARTCHAR 1ED9
ENCODING 7897
SWIDTH 792 0
DWIDTH 22 0
BBX 21 33 1 -8
BITMAP
002000
007000
00F800
01FC00
000000
00F800
07FF00
0FFF80
1FFFC0
3F07E0
7C01F0
7800F0
F800F8
F00078
F00078
F00078
F00078
F800F8
7800F0
7C01F0
7E03F0
3FDFE0
1FFFC0
0FFF80
03FE00
000000
000000
000000
007000
00F800
00F800
00F800
002000
ENDCHAR
STARTCHAR 1EDA
ENCODING 7898
SWIDTH 792 0
DWIDTH 22 0
BBX 21 25 1 0
BITMAP
001C00
003800
003000
007070
000070
00F870
07FF60
0FFF80
1FFFC0
3F07E0
7C01F0
7800F0
F800F8
F00078
F00078
F00078
F00078
F800F8
7800F0
7C01F0
7E03F0
3FDFE0
1FFFC0
0FFF80
03FE00
ENDCHAR
STARTCHAR 1EDB
ENCODING 7899
SWIDTH 792 0
DWIDTH 22 0
BBX 21 25 1 0
BITMAP
001C00
003800
003000
007070
000070
00F870
07FF60
0FFF80
1FFFC0
3F07E0
7C01F0
7800F0
F800F8
F00078
F00078
F00078
F00078
F800F8
7800F0
7C01F0
7E03F0
3FDFE0
1FFFC0
0FFF80
03FE00
ENDCHAR
STARTCHAR 1EDC
ENCODING 7900
SWIDTH 792 0
DWIDTH 22 0
BBX 21 25 1 0
BITMAP
01C000
00E000
006000
007070
000070
00F870
07FF60
0FFF80
1FFFC0
3F07E0
7C01F0
7800F0
F800F8
F00078
F00078
F00078
F00078
F800F8
7800F0
7C01F0
7E03F0
3FDFE0
1FFFC0
0FFF80
03FE00
ENDCHAR
STARTCHAR 1EDD
ENCODING 7901
SWIDTH 792 0
DWIDTH 22 0
BBX 21 25 1 0
BITMAP
01C000
00E000
006000
007070
000070
00F870
07FF60
0FFF80
1FFFC0
3F07E0
7C01F0
7800F0
F800F8
F00078
F00078
F00078
F00078
F800F8
7800F0
7C01F0
7E03F0
3FDFE0
1FFFC0
0FFF80
03FE00
ENDCHAR
STARTCHAR 1EDE
ENCODING 7902
SWIDTH 792 0
DWIDTH 22 0
BBX 21 26 1 0
BITMAP
003000
007000
007000
006000
007070
000070
00F870
07FF60
0FFF80
1FFFC0
3F07E0
7C01F0
7800F0
F800F8
F00078
F00078
F00078
F00078
F800F8
7800F0
7C01F0
7E03F0
3FDFE0
1FFFC0
0FFF80
03FE00
ENDCHAR
STARTCHAR 1EDF
ENCODING 7903
SWIDTH 792 0
DWIDTH 22 0
BBX 21 26 1 0
BITMAP
003000
007000
007000
006000
007070
000070
00F870
07FF60
0FFF80
1FFFC0
3F07E0
7C01F0
7800F0
F800F8
F00078
F00078
F00078
F00078
F800F8
7800F0
7C01F0
7E03F0
3FDFE0
1FFFC0
0FFF80
03FE00
ENDCHAR
STARTCHAR 1EE0
ENCODING 7904
SWIDTH 792 0
DWIDTH 22 0
BBX 21 25 1 0
BITMAP
01E000
01F800
01F800
000070
000070
00F870
07FF60
0FFF80
1FFFC0
3F07E0
7C01F0
7800F0
F800F8
F00078
F00078
F00078
F00078
F800F8
7800F0
7C01F0
7E03F0
3FDFE0
1FFFC0
0FFF80
03FE00
ENDCHAR
STARTCHAR 1EE1
ENCODING 7905
SWIDTH 792 0
DWIDTH 22 0
BBX 21 25 1 0
BITMAP
01E000
01F800
01F800
000070
000070
00F870
07FF60
0FFF80
1FFFC0
3F07E0
7C01F0
7800F0
F800F8
F00078
F00078
F00078
F00078
F800F8
7800F0
7C01F0
7E03F0
3FDFE0
1FFFC0
0FFF80
03FE00
ENDCHAR
STARTCHAR 1EE2
ENCODING 7906
SWIDTH 792 0
DWIDTH 22 0
BBX 21 30 1 -8
BITMAP
000070
000070
00F870
07FF60
0FFF80
1FFFC0
3F07E0
7C01F0
7800F0
F800F8
F00078
F00078
F00078
F00078
F800F8
7800F0
7C01F0
7E03F0
3FDFE0
1FFFC0
0FFF80
03FE00
000000
000000
000000
007000
00F800
00F800
00F800
002000
ENDCHAR
STARTCHAR 1EE3
ENCODING 7907
SWIDTH 792 0
DWIDTH 22 0
BBX 21 30 1 -8
BITMAP
000070
000070
00F870
07FF60
0FFF80
1FFFC0
3F07E0
7C01F0
7800F0
F800F8
F00078
F00078
F00078
F00078
F800F8
7800F0
7C01F0
7E03F0
3FDFE0
1FFFC0
0FFF80
03FE00
000000
000000
000000
007000
00F800
00F800
00F800
002000
ENDCHAR
STARTCHAR 1EE4
ENCODING 7908
SWIDTH 540 0
DWIDTH 15 0
BBX 13 27 1 -8
BITMAP
F078
F078
F078
F078
F078
F078
F078
F078
F078
F078
F078
F078
F078
F878
F8F8
7DF0
7FF0
3FE0
1FC0
0000
0000
0000
0700
0F80
0F80
0F80
0300
ENDCHAR
STARTCHAR 1EE5
ENCODING 7909
SWIDTH 540 0
DWIDTH 15 0
BBX 13 27 1 -8
BITMAP
F078
F078
F078
F078
F078
F078
F078
F078
F078
F078
F078
F078
F078
F878
F8F8
7DF0
7FF0
3FE0
1FC0
0000
0000
0000
0700
0F80
0F80
0F80
0300
ENDCHAR
STARTCHAR 1EE6
ENCODING 7910
SWIDTH 540 0
DWIDTH 15 0
BBX 13 26 1 0
BITMAP
0300
0700
0700
0600
0700
0000
0000
F078
F078
F078
F078
F078
F078
F078
F078
F078
F078
F078
F078
F078
F878
F8F8
7DF0
7FF0
3FE0
1FC0
ENDCHAR
STARTCHAR 1EE7
ENCODING 7911
SWIDTH 540 0
DWIDTH 15 0
BBX 13 26 1 0
BITMAP
0300
0700
0700
0600
0700
0000
0000
F078
F078
F078
F078
F078
F078
F078
F078
F078
F078
F078
F078
F078
F878
F8F8
7DF0
7FF0
3FE0
1FC0
ENDCHAR
STARTCHAR 1EE8
ENCODING 7912
SWIDTH 540 0
DWIDTH 15 0
BBX 16 25 1 0
BITMAP
01C0
0380
0300
0707
0007
0007
F07F
F078
F078
F078
F078
F078
F078
F078
F078
F078
F078
F078
F078
F878
F8F8
7DF0
7FF0
3FE0
1FC0
ENDCHAR
STARTCHAR 1EE9
ENCODING 7913
SWIDTH 540 0
DWIDTH 15 0
BBX 16 25 1 0
BITMAP
01C0
0380
0300
0707
0007
0007
F07F
F078
F078
F078
F078
F078
F078
F078
F078
F078
F078
F078
F078
F878
F8F8
7DF0
7FF0
3FE0
1FC0
ENDCHAR
STARTCHAR 1EEA
ENCODING 7914
SWIDTH 540 0
DWIDTH 15 0
BBX 16 25 1 0
BITMAP
1C00
0E00
0600
0707
0007
0007
F07F
F078
F078
F078
F078
F078
F078
F078
F078
F078
F078
F078
F078
F878
F8F8
7DF0
7FF0
3FE0
1FC0
ENDCHAR
STARTCHAR 1EEB
ENCODING 7915
SWIDTH 540 0
DWIDTH 15 0
BBX 16 25 1 0
BITMAP
1C00
0E00
0600
0707
0007
0007
F07F
F078
F078
F078
F078
F078
F078
F078
F078
F078
F078
F078
F078
F878
F8F8
7DF0
7FF0
3FE0
1FC0
ENDCHAR
STARTCHAR 1EEC
ENCODING 7916
SWIDTH 540 0
DWIDTH 15 0
BBX 16 26 1 0
BITMAP
0300
0700
0700
0600
0707
0007
0007
F07F
F078
F078
F078
F078
F078
F078
F078
F078
F078
F078
F078
F078
F878
F8F8
7DF0
7FF0
3FE0
1FC0
ENDCHAR
STARTCHAR 1EED
ENCODING 7917
SWIDTH 540 0
DWIDTH 15 0
BBX 16 26 1 0
BITMAP
0300
0700
0700
0600
0707
0007
0007
F07F
F078
F078
F078
F078
F078
F078
F078
F078
F078
F078
F078
F078
F878
F8F8
7DF0
7FF0
3FE0
1FC0
ENDCHAR
STARTCHAR 1EEE
ENCODING 7918
SWIDTH 540 0
DWIDTH 15 0
BBX 16 25 1 0
BITMAP
1E40
1FC0
1FC0
0007
0007
0007
F07F
F078
F078
F078
F078
F078
F078
F078
F078
F078
F078
F078
F078
F878
F8F8
7DF0
7FF0
3FE0
1FC0
ENDCHAR
STARTCHAR 1EEF
ENCODING 7919
SWIDTH 540 0
DWIDTH 15 0
BBX 16 25 1 0
BITMAP
1E40
1FC0
1FC0
0007
0007
0007
F07F
F078
F078
F078
F078
F078
F078
F078
F078
F078
F078
F078
F078
F878
F8F8
7DF0
7FF0
3FE0
1FC0
ENDCHAR
STARTCHAR 1EF0
ENCODING 7920
SWIDTH 540 0
DWIDTH 15 0
BBX 16 30 1 -8
BITMAP
0007
0007
0007
F07F
F078
F078
F078
F078
F078
F078
F078
F078
F078
F078
F078
F078
F878
F8F8
7DF0
7FF0
3FE0
1FC0
0000
0000
0000
0700
0F80
0F80
0F80
0300
ENDCHAR
STARTCHAR 1EF1
ENCODING 7921
SWIDTH 540 0
DWIDTH 15 0
BBX 16 30 1 -8
BITMAP
0007
0007
0007
F07F
F078
F078
F078
F078
F078
F078
F078
F078
F078
F078
F078
F078
F878
F8F8
7DF0
7FF0
3FE0
1FC0
0000
0000
0000
0700
0F80
0F80
0F80
0300
ENDCHAR
STARTCHAR 1EF2
ENCODING 7922
SWIDTH 504 0
DWIDTH 14 0
BBX 13 25 1 0
BITMAP
1C00
0E00
0600
0700
0000
0000
F078
F078
F078
F078
F078
F078
F078
F078
F078
F8F8
79F0
7FF0
3FE0
1FC0
0F80
0F80
0F80
0F80
0F80
ENDCHAR
STARTCHAR 1EF3
ENCODING 7923
SWIDTH 504 0
DWIDTH 14 0
BBX 13 25 1 0
BITMAP
1C00
0E00
0600
0700
0000
0000
F078
F078
F078
F078
F078
F078
F078
F078
F078
F8F8
79F0
7FF0
3FE0
1FC0
0F80
0F80
0F80
0F80
0F80
ENDCHAR
STARTCHAR 1EF4
ENCODING 7924
SWIDTH 504 0
DWIDTH 14 0
BBX 13 27 1 -8
BITMAP
F078
F078
F078
F078
F078
F078
F078
F078
F078
F8F8
79F0
7FF0
3FE0
1FC0
0F80
0F80
0F80
0F80
0F80
0000
0000
0000
0700
0F80
0F80
0F80
0200
ENDCHAR
STARTCHAR 1EF5
ENCODING 7925
SWIDTH 504 0
DWIDTH 14 0
BBX 13 27 1 -8
BITMAP
F078
F078
F078
F078
F078
F078
F078
F078
F078
F8F8
79F0
7FF0
3FE0
1FC0
0F80
0F80
0F80
0F80
0F80
0000
0000
0000
0700
0F80
0F80
0F80
0200
ENDCHAR
STARTCHAR 1EF6
ENCODING 7926
SWIDTH 504 0
DWIDTH 14 0
BBX 13 26 1 0
BITMAP
0700
0700
0600
0600
0700
0000
0000
F078
F078
F078
F078
F078
F078
F078
F078
F078
F8F8
79F0
7FF0
3FE0
1FC0
0F80
0F80
0F80
0F80
0F80
ENDCHAR
STARTCHAR 1EF7
ENCODING 7927
SWIDTH 504 0
DWIDTH 14 0
BBX 13 26 1 0
BITMAP
0700
0700
0600
0600
0700
0000
0000
F078
F078
F078
F078
F078
F078
F078
F078
F078
F8F8
79F0
7FF0
3FE0
1FC0
0F80
0F80
0F80
0F80
0F80
ENDCHAR
STARTCHAR 1EF8
ENCODING 7928
SWIDTH 504 0
DWIDTH 14 0
BBX 13 25 1 0
BITMAP
1E00
1F80
1F80
0000
0000
0000
F078
F078
F078
F078
F078
F078
F078
F078
F078
F8F8
79F0
7FF0
3FE0
1FC0
0F80
0F80
0F80
0F80
0F80
ENDCHAR
STARTCHAR 1EF9
ENCODING 7929
SWIDTH 504 0
DWIDTH 14 0
BBX 13 25 1 0
BITMAP
1E00
1F80
1F80
0000
0000
0000
F078
F078
F078
F078
F078
F078
F078
F078
F078
F8F8
79F0
7FF0
3FE0
1FC0
0F80
0F80
0F80
0F80
0F80
ENDCHAR
STARTCHAR 2013
ENCODING 8211
SWIDTH 576 0
DWIDTH 16 0
BBX 12 3 2 5
BITMAP
FFF0
FFF0
FFF0
ENDCHAR
STARTCHAR 2014
ENCODING 8212
SWIDTH 828 0
DWIDTH 23 0
BBX 20 3 2 5
BITMAP
FFFFF0
FFFFF0
FFFFF0
ENDCHAR
STARTCHAR 2018
ENCODING 8216
SWIDTH 252 0
DWIDTH 7 0
BBX 4 5 2 14
BITMAP
70
70
E0
E0
E0
ENDCHAR
STARTCHAR 2019
ENCODING 8217
SWIDTH 252 0
DWIDTH 7 0
BBX 4 5 2 14
BITMAP
F0
E0
E0
C0
C0
ENDCHAR
STARTCHAR 201A
ENCODING 8218
SWIDTH 252 0
DWIDTH 7 0
BBX 4 5 2 -3
BITMAP
70
E0
E0
E0
C0
ENDCHAR
STARTCHAR 201C
ENCODING 8220
SWIDTH 432 0
DWIDTH 12 0
BBX 9 5 2 14
BITMAP
7380
7380
6300
E700
E700
ENDCHAR
STARTCHAR 201D
ENCODING 8221
SWIDTH 432 0
DWIDTH 12 0
BBX 9 5 2 14
BITMAP
F380
E700
E700
C700
C600
ENDCHAR
STARTCHAR 201E
ENCODING 8222
SWIDTH 468 0
DWIDTH 13 0
BBX 9 5 2 -3
BITMAP
7380
E380
E380
E300
C700
ENDCHAR
STARTCHAR 2020
ENCODING 8224
SWIDTH 432 0
DWIDTH 12 0
BBX 9 14 2 6
BITMAP
1C00
1C00
FF80
FF80
FF80
1C00
1C00
1C00
1C00
1C00
1C00
1C00
1C00
1C00
ENDCHAR
STARTCHAR 2021
ENCODING 8225
SWIDTH 432 0
DWIDTH 12 0
BBX 9 14 2 6
BITMAP
1C00
1C00
FF80
FF80
FF80
1C00
1C00
1C00
1C00
FF80
FF80
1C00
1C00
1C00
ENDCHAR
STARTCHAR 2022
ENCODING 8226
SWIDTH 324 0
DWIDTH 9 0
BBX 6 6 2 5
BITMAP
78
FC
FC
FC
FC
78
ENDCHAR
STARTCHAR 2026
ENCODING 8230
SWIDTH 720 0
DWIDTH 20 0
BBX 17 4 2 0
BITMAP
F1C780
F3E780
F3E780
F1C780
ENDCHAR
STARTCHAR 2030
ENCODING 8240
SWIDTH 1368 0
DWIDTH 38 0
BBX 35 20 2 0
BITMAP
1E00700000
7F00E00000
FF81C00000
E3C3C00000
E3C3800000
E3C7000000
F3CF000000
FF8E000000
7F1C000000
1E38000000
0038000000
0071F81F80
00E3FC3FC0
01E7FE7FE0
01C70E71E0
03870E70E0
07870E71E0
0707FE7FE0
0E03FC3FC0
1C01F81F80
ENDCHAR
STARTCHAR 2039
ENCODING 8249
SWIDTH 396 0
DWIDTH 11 0
BBX 8 13 2 2
BITMAP
0F
1E
1C
3C
78
F0
E0
F0
78
3C
1C
1E
0F
ENDCHAR
STARTCHAR 203A
ENCODING 8250
SWIDTH 396 0
DWIDTH 11 0
BBX 8 13 2 2
BITMAP
F0
F0
78
3C
1C
1E
0F
0E
1E
3C
78
70
E0
ENDCHAR
STARTCHAR 2044
ENCODING 8260
SWIDTH 684 0
DWIDTH 19 0
BBX 16 19 2 0
BITMAP
000F
000E
001C
0038
0038
0070
00E0
01E0
01C0
0380
0700
0700
0E00
1C00
1C00
3800
7000
F000
E000
ENDCHAR
STARTCHAR 20AC
ENCODING 8364
SWIDTH 648 0
DWIDTH 18 0
BBX 14 20 2 0
BITMAP
003C
01FC
03FC
07FC
0FC0
1F00
1E00
FFF0
FFF0
FFF0
3C00
FFF0
FFF0
FFF0
1F00
1F80
0FFC
07FC
03FC
00FC
ENDCHAR
STARTCHAR 2122
ENCODING 8482
SWIDTH 828 0
DWIDTH 23 0
BBX 20 11 2 9
BITMAP
FF0C70
FF8E70
FFEFF0
39FFF0
39FFF0
39FEF0
39CE70
39CE70
39CE70
39CE70
39CE70
ENDCHAR
STARTCHAR 2190
ENCODING 8592
SWIDTH 828 0
DWIDTH 23 0
BBX 20 14 2 3
BITMAP
030000
078000
0F0000
1E0000
3C0000
7FFFF0
FFFFF0
FFFFF0
7FFFF0
3C0000
1E0000
0F0000
078000
030000
ENDCHAR
STARTCHAR 2191
ENCODING 8593
SWIDTH 612 0
DWIDTH 17 0
BBX 14 20 2 0
BITMAP
0200
0700
0F80
1FC0
3FE0
7FF0
FFF8
F7BC
6798
0780
0780
0780
0780
0780
0780
0780
0780
0780
0780
0780
ENDCHAR
STARTCHAR 2192
ENCODING 8594
SWIDTH 828 0
DWIDTH 23 0
BBX 19 14 2 3
BITMAP
001800
003C00
001E00
000F00
000780
FFFFC0
FFFFE0
FFFFE0
FFFFC0
000780
000F00
001E00
003C00
001800
ENDCHAR
STARTCHAR 2193
ENCODING 8595
SWIDTH 612 0
DWIDTH 17 0
BBX 14 19 2 -1
BITMAP
0780
0780
0780
0780
0780
0780
0780
0780
0780
0780
4788
E79C
F7BC
7FF8
3FF0
1FE0
0FC0
0780
0300
ENDCHAR
STARTCHAR 2194
ENCODING 8596
SWIDTH 936 0
DWIDTH 26 0
BBX 22 14 2 3
BITMAP
030100
078380
0F03C0
1E01E0
3C00F0
7FFFF8
FFFFFC
FFFFFC
7FFFF8
3C00F0
1E01E0
0F03C0
078380
030100
ENDCHAR
STARTCHAR 2195
ENCODING 8597
SWIDTH 684 0
DWIDTH 19 0
BBX 16 20 2 -1
BITMAP
0180
03C0
07E0
1FF8
3FFC
7FFE
F3CF
E3C6
43C2
03C0
03C0
03C0
43C2
E3CF
FBDF
7FFE
1FF8
0FF0
07E0
0380
ENDCHAR
STARTCHAR 2196
ENCODING 8598
SWIDTH 648 0
DWIDTH 18 0
BBX 15 15 2 2
BITMAP
FFC0
FFC0
FFC0
FC00
FE00
FF00
EF80
E7C0
E3E0
E1F0
00F8
007C
003E
001C
0008
ENDCHAR
STARTCHAR 2197
ENCODING 8599
SWIDTH 648 0
DWIDTH 18 0
BBX 15 15 2 2
BITMAP
07FE
07FE
07FE
007E
00FE
01FE
03EE
07CE
0F8E
1F0E
3E00
7C00
F800
F000
6000
ENDCHAR
STARTCHAR 2198
ENCODING 8600
SWIDTH 648 0
DWIDTH 18 0
BBX 15 15 2 2
BITMAP
6000
F000
F800
7C00
3E00
1F0E
0F8E
07CE
03EE
01FE
00FE
007E
07FE
07FE
07FE
ENDCHAR
STARTCHAR 2199
ENCODING 8601
SWIDTH 648 0
DWIDTH 18 0
BBX 15 15 2 2
BITMAP
0008
001C
003E
007C
00F8
E1F0
E3E0
E7C0
EF80
FF00
FE00
FC00
FFC0
FFC0
FFC0
ENDCHAR
STARTCHAR 2202
ENCODING 8706
SWIDTH 612 0
DWIDTH 17 0
BBX 14 21 2 0
BITMAP
0C00
1F00
1F80
3FC0
07E0
03F0
01F0
00F8
0678
3FF8
7FFC
FFFC
F9FC
F07C
F07C
F078
F0F8
FFF0
7FF0
7FE0
1FC0
ENDCHAR
STARTCHAR 2205
ENCODING 8709
SWIDTH 720 0
DWIDTH 20 0
BBX 17 17 2 1
BITMAP
000100
0FF380
1FFF00
380E00
701F00
603B00
C07380
C0E180
C1C180
C38180
C70180
CE0380
7C0300
780700
780E00
FFFC00
CFF000
ENDCHAR
STARTCHAR 220F
ENCODING 8719
SWIDTH 648 0
DWIDTH 18 0
BBX 15 23 2 -3
BITMAP
FFFE
FFFE
FFFE
3838
3838
3838
3838
3838
3838
3838
3838
3838
3838
3838
3838
3838
3838
3838
3838
3838
3838
3838
3838
ENDCHAR
STARTCHAR 2211
ENCODING 8721
SWIDTH 504 0
DWIDTH 14 0
BBX 11 23 2 -3
BITMAP
FFE0
FFE0
FFE0
F000
F800
7800
3C00
3C00
1E00
1E00
0F00
0F00
0F00
1E00
1E00
3C00
7800
7800
F000
F000
FFE0
FFE0
FFE0
ENDCHAR
STARTCHAR 2212
ENCODING 8722
SWIDTH 576 0
DWIDTH 16 0
BBX 13 3 2 8
BITMAP
FFF8
FFF8
FFF8
ENDCHAR
STARTCHAR 221A
ENCODING 8730
SWIDTH 720 0
DWIDTH 20 0
BBX 17 23 2 -3
BITMAP
003F80
003F80
003F80
003800
007800
007800
007000
00F000
00F000
00F000
00E000
E1E000
F1E000
F1C000
71C000
7BC000
7B8000
3B8000
3F8000
3F8000
1F0000
1F0000
1F0000
ENDCHAR
STARTCHAR 221E
ENCODING 8734
SWIDTH 828 0
DWIDTH 23 0
BBX 20 10 2 5
BITMAP
1C0380
7F0FE0
FF9FE0
E1F870
C0F030
C0F030
C1F870
FFFFF0
7F1FE0
3E0780
ENDCHAR
STARTCHAR 222B
ENCODING 8747
SWIDTH 540 0
DWIDTH 15 0
BBX 12 23 2 -3
BITMAP
00F0
03F0
03F0
0780
0780
0700
0700
0700
0F00
0F00
0E00
0E00
0E00
1E00
1E00
1E00
1C00
1C00
1C00
3C00
7C00
F800
F000
ENDCHAR
STARTCHAR 2248
ENCODING 8776
SWIDTH 540 0
DWIDTH 15 0
BBX 12 10 2 4
BITMAP
FC00
FFF0
FFF0
03F0
0000
0000
FC00
FFF0
FFF0
03F0
ENDCHAR
STARTCHAR 2260
ENCODING 8800
SWIDTH 576 0
DWIDTH 16 0
BBX 13 15 2 2
BITMAP
01C0
03C0
0380
FFF8
FFF8
FFF8
0700
0E00
0E00
FFF8
FFF8
FFF8
3C00
3800
3800
ENDCHAR
STARTCHAR 2264
ENCODING 8804
SWIDTH 576 0
DWIDTH 16 0
BBX 13 13 2 2
BITMAP
0038
07F8
FFF8
FF00
F800
FFC0
3FF8
03F8
0018
0000
FFF8
FFF8
FFF8
ENDCHAR
STARTCHAR 2265
ENCODING 8805
SWIDTH 576 0
DWIDTH 16 0
BBX 13 13 2 2
BITMAP
C000
FE00
FFF0
0FF8
00F8
3FF8
FFE0
FC00
8000
0000
FFF8
FFF8
FFF8
ENDCHAR
STARTCHAR 25CA
ENCODING 9674
SWIDTH 540 0
DWIDTH 15 0
BBX 11 16 2 2
BITMAP
1F00
1F00
3F80
3B80
7BC0
71C0
F1E0
E0E0
E0E0
F1E0
71C0
7BC0
3B80
3F80
1F00
1F00
ENDCHAR
ENDFONT
